<?xml version="1.0" encoding="utf-8"?>
<!-- Generator: Adobe Illustrator 17.0.0, SVG Export Plug-In . SVG Version: 6.00 Build 0)  -->
<!DOCTYPE svg PUBLIC "-//W3C//DTD SVG 1.1//EN" "http://www.w3.org/Graphics/SVG/1.1/DTD/svg11.dtd">
<svg version="1.1" id="Layer_1" xmlns="http://www.w3.org/2000/svg" xmlns:xlink="http://www.w3.org/1999/xlink" x="0px" y="0px"
	 width="111px" height="111px" viewBox="0 0 111 111" enable-background="new 0 0 111 111" xml:space="preserve">
<circle fill="#FFFFFF" stroke="#333333" stroke-width="4.026" stroke-miterlimit="10" cx="56.387" cy="54.933" r="47"/>
<g>
	<g>
		<g>
			<g>
				<path fill="#58595B" d="M73.057,85.684c0,2.47-2.021,4.49-4.491,4.49H41.905c-2.469,0-4.49-2.021-4.49-4.49l0-62.303
					c0-2.469,2.021-4.489,4.49-4.489h26.66c2.471,0,4.491,2.02,4.491,4.489L73.057,85.684z"/>
			</g>
		</g>
		<g>
			<g>
				<path fill="#404041" d="M43.028,89.053c-2.47,0-4.489-2.021-4.49-4.491V24.505c0-2.47,2.021-4.489,4.49-4.489h24.415
					c2.47,0,4.49,2.021,4.489,4.489v60.057c0.001,2.469-2.02,4.49-4.489,4.49L43.028,89.053z"/>
			</g>
		</g>
		<g>
			<rect x="39.197" y="26.02" fill="#FFFFFF" width="32.076" height="55.244"/>
		</g>
		<g>
			<ellipse fill="#D0D2D3" cx="55.236" cy="23.347" rx="3.564" ry="0.892"/>
		</g>
		<g>
			<g>
				<rect x="40.979" y="65.226" fill="#E6E7E8" width="5.703" height="5.702"/>
			</g>
			<g>
				<rect x="48.583" y="65.226" fill="#E6E7E8" width="5.702" height="5.702"/>
			</g>
			<g>
				<rect x="56.186" y="65.226" fill="#E6E7E8" width="5.703" height="5.702"/>
			</g>
			<g>
				<rect x="63.79" y="65.226" fill="#E6E7E8" width="5.702" height="5.702"/>
			</g>
			<g>
				<rect x="40.979" y="72.354" fill="#E6E7E8" width="5.703" height="5.703"/>
			</g>
			<g>
				<rect x="48.583" y="72.354" fill="#E6E7E8" width="5.703" height="5.703"/>
			</g>
			<g>
				<rect x="56.186" y="72.354" fill="#E6E7E8" width="5.703" height="5.703"/>
			</g>
			<g>
				<rect x="63.79" y="72.354" fill="#E6E7E8" width="5.703" height="5.703"/>
			</g>
		</g>
	</g>
	<g>
		<path fill="#404041" d="M68.566,90.571H41.905c-2.694-0.001-4.886-2.193-4.886-4.887l0-62.303c0-2.694,2.192-4.886,4.886-4.886
			h26.661c2.694,0,4.886,2.192,4.886,4.886v62.303C73.453,88.378,71.26,90.571,68.566,90.571z M41.905,19.288
			c-2.258,0-4.094,1.837-4.094,4.094v62.303c0,2.256,1.836,4.095,4.094,4.095h26.661c2.258,0,4.095-1.838,4.095-4.095l0-62.303
			c0-2.257-1.836-4.094-4.095-4.094L41.905,19.288z"/>
	</g>
</g>
</svg>
