<?xml version="1.0" encoding="utf-8"?>
<!-- Generator: Adobe Illustrator 17.0.0, SVG Export Plug-In . SVG Version: 6.00 Build 0)  -->
<!DOCTYPE svg PUBLIC "-//W3C//DTD SVG 1.1//EN" "http://www.w3.org/Graphics/SVG/1.1/DTD/svg11.dtd">
<svg version="1.1" id="Layer_1" xmlns="http://www.w3.org/2000/svg" xmlns:xlink="http://www.w3.org/1999/xlink" x="0px" y="0px"
	 width="99px" height="100.065px" viewBox="6 5.468 99 100.065" enable-background="new 6 5.468 99 100.065" xml:space="preserve">
<g>
	<circle fill="#FFFFFF" stroke="#333333" stroke-width="4.026" stroke-miterlimit="10" cx="55.5" cy="54.933" r="47"/>
	<g>
		<g>
			<path fill="none" d="M55.011,16.49c-15.462,0-28.04,12.578-28.04,28.04c0,10.876,6.225,20.325,15.299,24.973l22.366-51.311
				C61.631,17.09,58.39,16.49,55.011,16.49z"/>
			<path fill="none" d="M55.011,72.569c15.461,0,28.039-12.579,28.039-28.039c0-11.239-6.647-20.952-16.215-25.421L44.437,70.497
				C47.702,71.832,51.271,72.569,55.011,72.569z"/>
			<path fill="#333333" d="M42.269,69.504c0.705,0.361,1.43,0.692,2.168,0.993l22.398-51.388c-0.717-0.335-1.451-0.643-2.2-0.916
				L42.269,69.504z"/>
			<path fill="#333333" d="M42.269,69.504l-0.636,1.46c0.707,0.358,1.431,0.689,2.168,0.992l0.636-1.459
				C43.699,70.195,42.975,69.865,42.269,69.504z"/>
			<path fill="#333333" d="M66.835,19.109l0.636-1.457c-0.72-0.335-1.453-0.642-2.202-0.919l-0.635,1.46
				C65.384,18.466,66.118,18.774,66.835,19.109z"/>
			<path fill="#333333" d="M67.472,17.652l-0.636,1.457c9.568,4.47,16.215,14.182,16.215,25.421
				c0,15.46-12.579,28.039-28.039,28.039c-3.739,0-7.309-0.738-10.573-2.072l-0.636,1.459c3.459,1.418,7.243,2.203,11.209,2.203
				c16.338,0,29.629-13.291,29.629-29.629C84.64,32.641,77.6,22.367,67.472,17.652z"/>
		</g>
		<g>
			<path fill="#333333" d="M74.306,86.037c0-0.279-0.102-0.554-0.285-0.819c0.083,0.389,0.149,0.814,0.197,1.279
				C74.275,86.346,74.306,86.192,74.306,86.037z"/>
			<path fill="#333333" d="M36.155,86.037c0,0.129,0.027,0.257,0.066,0.383c0.026-0.351,0.057-0.683,0.095-0.996
				C36.214,85.626,36.155,85.829,36.155,86.037z"/>
			<path fill="#404041" d="M74.021,85.218c-0.915-1.32-3.996-2.453-8.299-3.163c-3.01-0.497-6.615-0.787-10.491-0.787
				c-3.322,0-6.445,0.213-9.165,0.586c-5.226,0.718-8.957,2.028-9.749,3.57c-0.038,0.313-0.07,0.645-0.095,0.996
				c0.782,2.455,8.991,4.386,19.01,4.386c9.916,0,18.062-1.892,18.987-4.309C74.171,86.032,74.104,85.606,74.021,85.218z"/>
			<path fill="#333333" d="M55.231,90.806c-10.018,0-18.295-2.314-19.076-4.769c-0.043,0.609,0,1.656,0,2.385
				c0,2.633,8.541,4.769,19.076,4.769c10.536,0,19.075-2.136,19.075-4.769c0-0.71,0.059-1.806,0-2.385
				C73.382,88.455,65.147,90.806,55.231,90.806z"/>
		</g>
		<path fill="#333333" d="M50.462,74.115"/>
		<path fill="#404041" d="M50.462,73.237c0,0-1.722,4.985-1.722,9.754c2.005,2.268,9.829,2.765,12.541,0.132
			c0-4.769-1.281-9.887-1.281-9.887L50.462,73.237L50.462,73.237z"/>
		<g>
			<g>
				
					<linearGradient id="SVGID_1_" gradientUnits="userSpaceOnUse" x1="279.26" y1="-274.0295" x2="331.762" y2="-274.0295" gradientTransform="matrix(1 0 0 -1 -250.5 -229.5)">
					<stop  offset="0" style="stop-color:#FFFFFF"/>
					<stop  offset="1" style="stop-color:#DFE0E1"/>
				</linearGradient>
				<path fill="url(#SVGID_1_)" d="M55.011,70.781c-14.475,0-26.251-11.776-26.251-26.251c0-14.476,11.776-26.252,26.251-26.252
					S81.262,30.055,81.262,44.53S69.485,70.781,55.011,70.781z"/>
				<path fill="#929497" d="M55.011,18.949c14.105,0,25.58,11.476,25.58,25.581s-11.475,25.58-25.58,25.58
					s-25.58-11.475-25.58-25.58C29.43,30.425,40.906,18.949,55.011,18.949 M55.011,17.607c-14.846,0-26.922,12.077-26.922,26.923
					c0,14.844,12.077,26.922,26.922,26.922c14.844,0,26.922-12.078,26.922-26.922C81.932,29.684,69.855,17.607,55.011,17.607
					L55.011,17.607z"/>
			</g>
		</g>
		<g>
			<path fill="#6D6E70" d="M59.329,24.54c-0.43,1.107-1.217-0.068-2.317,0.177C56.979,22.891,58.764,23.992,59.329,24.54z"/>
			<path fill="#6D6E70" d="M40.797,24.896c-0.149,0.683-0.327,1.337-1.069,1.427C39.97,25.732,39.991,24.923,40.797,24.896z"/>
			<path fill="#6D6E70" d="M59.15,25.252c1.199,0.175,1.455,0.535,2.672,0.891c-0.386,0.684-1.357,0.781-2.494,0.714
				C59.273,26.313,58.665,25.79,59.15,25.252z"/>
			<path fill="#6D6E70" d="M39.905,26.499c0.101,0.463-0.468,1.786-1.247,1.961c-0.098-0.26,0.208-0.922-0.178-0.892
				C38.762,27.02,39.581,27.006,39.905,26.499z"/>
			<path fill="#6D6E70" d="M66.1,30.597c0.464,0.09,0.9,1.318,0,1.247C65.688,31.45,66.16,31.151,66.1,30.597z"/>
			<path fill="#6D6E70" d="M65.031,31.311c0,0.475,0,0.95,0,1.426c-0.711,0.699-1.169,0.335-1.604,0.714
				C62.228,32.137,63.428,30.407,65.031,31.311z"/>
			<path fill="#6D6E70" d="M30.461,38.795c0.179,0,0.356,0,0.534,0c-0.096,0.472,0.673,3.088-0.89,3.03
				C30.44,41.03,30.505,39.967,30.461,38.795z"/>
			<path fill="#6D6E70" d="M61.11,57.149c-0.32,0.541-1.337-0.842-0.178-1.07c0.078,0.48,0.669,0.915,0.178,1.426
				C60.886,57.46,60.931,57.151,61.11,57.149z"/>
			<path fill="#6D6E70" d="M47.39,61.782c0.337,0.257,0.789,0.398,0.712,1.069c-0.594,0.301-0.607-0.113-1.247-0.177
				C47.015,62.358,47.285,62.152,47.39,61.782z"/>
			<path fill="#6D6E70" d="M80.525,47.051c0.002-0.02,0.006-0.039,0.007-0.059c-0.001,0.02-0.004,0.039-0.006,0.059
				c0.273-0.105,0.476,0.007,0.692,0.121c0.008-0.06,0.018-0.12,0.027-0.179c0.06,0,0.119,0,0.178,0c0-1.545,0-3.09,0-4.634
				c-2.312-13.843-9.96-22.352-24.233-24.233c0-0.061,0-0.119,0-0.179c-1.485,0-2.97,0-4.455,0
				c-4.556,0.722-8.475,2.081-11.77,4.062c-0.03,0.315-0.05,0.629-0.044,0.943c0.194-0.126,0.391-0.252,0.587-0.372
				c-0.424,0.535,0.567,0.742-0.178,1.247c0.738-0.452,0.635,0.398,1.604,0.178c0.156,0.572-0.463,0.37-0.535,0.712
				c0.58,0.202,0.95,0.806,0.357,1.249c0.316-0.108,0.739,0.522,0.891,0c0.362,0.516-1.337,0.944-0.713,1.782
				c-0.44,0.023-0.859,0.026-1.069-0.179c-0.291,0.828-0.788,1.611-0.891,2.138c-0.704-0.008-1.06-0.365-1.069-1.068
				c-0.534,0-1.069,0-1.604,0c0.781,0.873,2.215,1.669,2.317,2.672c0.846,0.31,0.872-0.293,1.603,0
				c1.138,2.705-1.804,4.034-0.89,7.662c-1.243,1.146-3.09,4.929-1.426,6.949c0.069,0.984-0.193,1.238,0,1.961
				c-0.234-0.063-0.28-0.315-0.534-0.356c0.79,1.829,0.896,2.308,1.426,4.098c0.672,0.152,0.837-0.591,1.248-0.178
				c0.257,0.655,0.028,1.402,0.177,1.781c0.972,1.524,2.063,2.927,4.277,3.208c1.799,1.528,3.747,2.906,5.524,4.455
				c0.526-0.031,1.103-0.48,1.426-0.178c0.188,1.968-2.245,2.021-1.782,4.098c1.839,0.894,2.233,3.232,4.99,3.208
				c-0.246,1.808-0.942,2.37-2.406,2.352c0,0.226,0,0.452,0,0.676c1.04,0,2.079,0,3.119,0c3.355-0.574,6.383-1.476,9.075-2.712
				c0-0.204,0-0.415,0-0.648c-0.347,0.176-0.7,0.346-1.056,0.51c1.275-1.353,3.439-1.909,4.633-3.743
				c0.647-0.993,2.179-3.066,1.782-4.276c-2.234,0.217-3.248,0.773-5.524,0.713c-0.328-2.497-4.668,0.108-4.81-2.496
				c-2.775,1.354-5.436-1.414-7.306,1.426c-1.18-0.722-3.607,0.218-2.495-2.138c-0.171-0.898-1.029-1.109-2.138-1.069
				c0.234-0.599,0.338-1.325,0.713-1.782c1.166,0.485,2.365-0.131,3.208,0.712c-0.182,0.235-0.174,0.658-0.357,0.892
				c2.536,0.496,4.304,0.487,6.237-0.357c-0.912-0.737-1.643-0.59-3.208-0.712c0.495-0.633,0.416-1.841,0.89-2.495
				c-0.591,0.299-0.602,1.179-1.247,1.426c-0.679,0.186-0.547-0.716-1.068-0.178c-0.028,0.502,0.503,0.446,0.712,0.712
				c-0.341,0.501-0.929-0.244-1.426-0.179c-0.004-0.419,0.307-0.525,0.178-1.069c0.577-0.22,0.136,0.577,0.713,0.356
				c0.503-0.592-0.761-0.558-0.534-1.426c-0.579-0.104-0.83,0.122-1.248,0.178c0.178-1.008-0.534-1.129-0.356-2.137
				c0.836-0.411,1.4-1.094,2.317-1.426c-0.361-1.505,0.565-2.586,1.959-2.851c0.133-0.548-0.488-0.342-0.356-0.891
				c0.657-0.412,0.883-0.629,1.425,0c0.713-0.734,2.119-1.247,1.961-2.317c0.316,0.219,0.939,0.13,1.069,0.535
				c0.277-0.198,0.371-0.578,0.891-0.535c0.159-0.681-0.291-1.137,0-1.425c-0.023-0.393-0.756-0.076-1.069-0.179
				c-0.644-2.688-5.018-3.236-3.207-6.771c-0.936-1.321-2.605-1.909-3.029-3.742c0.487-0.355,0.994,0.779,1.782,0.178
				c1.808,1.874,2.007,5.358,5.345,5.703c0.163-1.729-0.087-3.743,0.535-6.059c-0.982-1.641-2.55-1.806-3.564-3.563
				c-1.359-0.112-2.458,0.037-2.673,1.069c-0.419-0.057-0.67-0.281-1.247-0.178c-0.726,0.225-1.378,0.524-1.96,0.89
				c-2.932-0.615-3.145,1.488-5.524,1.426c-0.384-0.453-0.818-1.788-0.357-2.494c-0.283-0.556-1.572-1.576-2.138-0.712
				c-0.286-0.533,0.948-1.067,1.247-1.604c0.219,0.077,0.366,0.227,0.356,0.534c0.264-0.092,0.45-0.262,0.713-0.355
				c-0.04-0.316,0.18-0.892-0.356-0.713c0.319-1.166,1.442-1.527,2.494-1.96c0.676,0.869,1.306,0.175,2.496,0.178
				c0.263,0.007-0.033-0.896-0.357-0.891c1.806-0.964,3.263,0.372,4.098,1.426c0.699-0.08,0.871-0.791,0.535-1.426
				c1.059,0.03,2.014-0.373,2.495,0c0.556,0.541-0.583,0.173-0.535,0.713c0.642,0.609,3.277,1.248,3.92,0.178
				c0.863,0.467,1.932,2.005,0.713,2.139c1.224,2.368,4.203,4.975,7.305,5.523c-0.087,0.563,0.322,0.629,0.178,1.247
				c-1.069,0.249-1.995-1.382-2.494-0.534c-0.492-0.057-0.309-0.551,0-0.714c-0.144-0.451-0.734-0.454-1.069-0.712
				c0.822,1.673,1.273,3.714,2.672,4.81c0.609,0.074,1.016-0.054,0.891-0.713c0.491,1.208,2.033,0.375,2.674,1.248
				c-1.807,1.669,0.455,2.774,1.069,4.454c0.563,0.089,0.066-0.884,0.712-0.712c0.222,1.086,0.188,2.426,0.714,3.207
				c-0.684-0.312-0.844,1.241-1.247,1.783c0.234,0.468,0.585,0.546,1.068,0.357c-0.436,2.237,1.444,3.046,0.714,4.989
				c1.064,1.354,2.365,1.412,3.322,0.529c-0.021,0-0.043,0-0.064,0c0.021,0,0.043,0,0.064,0c0.653-0.603,1.141-1.646,1.288-3.013
				c-0.016-0.033-0.033-0.067-0.054-0.101C80.48,47.068,80.503,47.06,80.525,47.051z M59.329,42.536
				c-0.022,0.453-0.26,0.692-0.713,0.714c0.029-0.208-0.04-0.318-0.178-0.357C58.588,42.629,59.011,42.635,59.329,42.536z
				 M56.478,37.19c0.178,0,0.356,0,0.534,0c-0.075,0.341-0.064,0.768-0.534,0.713C56.478,37.666,56.478,37.429,56.478,37.19z
				 M53.091,53.049c0.403,0.371-0.248,0.921,0.534,1.07c-0.408,0.623-0.631-0.421-1.247-0.179
				C52.411,53.439,53.226,53.718,53.091,53.049z M54.16,34.519c0.467,0.248-0.18,1.418-0.535,0.89
				C53.492,34.8,54.35,35.183,54.16,34.519z M53.982,38.973c-1.417,1.154-2.573-0.293-3.206-1.426
				C51.5,35.285,54.47,36.987,53.982,38.973z M46.32,51.269c1.066-0.61,1.994-0.14,2.851,0.356c0.572,0.156,0.37-0.462,0.712-0.534
				c0.729-0.075,0.72,0.586,1.604,0.357c-0.154,1.103,0.443,1.457,0.713,2.138c-0.919,1.405-3.72-0.164-4.276,1.604
				c-0.372-0.281-1.184-0.124-1.603-0.357C45.672,53.497,46.036,53.028,46.32,51.269z M44.361,22.401
				c-0.899-0.153-0.997-0.048-1.96,0c0.38-0.986,1.567-1.164,3.029-1.069c0.34-0.076,0.447-0.384,0.891-0.355
				C45.681,21.464,44.913,21.826,44.361,22.401z M60.932,22.936c-0.534,0-1.069,0-1.603,0
				C59.522,22.542,61.041,22.046,60.932,22.936z M75.187,36.835c-0.647,0.172-0.38-0.996,0-0.89
				c-0.156-0.736-1.505-1.027-1.068-1.783c0.569,0.083,0.628,0.678,1.247,0.712C75.503,35.725,75.087,36.022,75.187,36.835z
				 M76.791,34.696c-1.147-0.366-0.373-1.85-1.247-2.672C76.777,32.217,77.222,33.86,76.791,34.696z"/>
			<path fill="#6D6E70" d="M80.456,47.08c0.022,0.033,0.038,0.068,0.054,0.101c0.005-0.043,0.012-0.085,0.015-0.13
				C80.503,47.06,80.48,47.068,80.456,47.08z"/>
			<path fill="#6D6E70" d="M80.512,47.187c-0.048,0.537-0.111,1.064-0.189,1.583C80.577,48.241,80.768,47.714,80.512,47.187z"/>
		</g>
	</g>
</g>
</svg>
