<?xml version="1.0" encoding="utf-8"?>
<!-- Generator: Adobe Illustrator 17.0.0, SVG Export Plug-In . SVG Version: 6.00 Build 0)  -->
<!DOCTYPE svg PUBLIC "-//W3C//DTD SVG 1.1//EN" "http://www.w3.org/Graphics/SVG/1.1/DTD/svg11.dtd">
<svg version="1.1" id="Layer_1" xmlns="http://www.w3.org/2000/svg" xmlns:xlink="http://www.w3.org/1999/xlink" x="0px" y="0px"
	 width="99px" height="100.065px" viewBox="0 0 99 100.065" enable-background="new 0 0 99 100.065" xml:space="preserve">
<g>
	<g>
		<g>
			<linearGradient id="SVGID_1_" gradientUnits="userSpaceOnUse" x1="19.7913" y1="46.8439" x2="80.1246" y2="46.8439">
				<stop  offset="0" style="stop-color:#FFFFFF"/>
				<stop  offset="1" style="stop-color:#DFE0E1"/>
			</linearGradient>
			<path fill="url(#SVGID_1_)" stroke="#929497" stroke-width="1.342" stroke-miterlimit="10" d="M56.99,24.955
				c-13.81,2.578-23.74,8.902-29.676,14.442c-1.043,0.973-14.303,12.724-2.967,24.532c9.479,9.874,26.686,3.157,31.513,0.249
				c1.421-2.648,3.999-7.338,5.285-8.954c1.923-2.416,5.572-2.955,5.543,1.308c1.769-1.35,2.964-2.297,2.964-2.297
				C93.182,34.311,71.768,22.196,56.99,24.955z"/>
			<path fill="#6D6E70" d="M61.145,55.225c-1.286,1.616-4.192,6.826-5.612,9.474c0.009-0.006,0.269,0.049,0.763-0.208
				c3.379-1.764,7.363-4.877,10.326-7.139C66.651,53.089,63.069,52.809,61.145,55.225z"/>
		</g>
		<ellipse fill="#404041" cx="36.205" cy="47.843" rx="2.189" ry="1.818"/>
		
			<ellipse transform="matrix(0.8924 0.4513 -0.4513 0.8924 32.924 -5.2927)" fill="#231F20" cx="27.558" cy="66.38" rx="1.695" ry="0.749"/>
		<g>
			<linearGradient id="SVGID_2_" gradientUnits="userSpaceOnUse" x1="22.7521" y1="90.9182" x2="30.9902" y2="66.993">
				<stop  offset="0" style="stop-color:#FFFFFF"/>
				<stop  offset="0.7853" style="stop-color:#929497"/>
				<stop  offset="1" style="stop-color:#000000"/>
			</linearGradient>
			<path fill="url(#SVGID_2_)" stroke="#A6A8AB" stroke-width="0.3355" stroke-miterlimit="10" d="M28.808,93.003
				c-5.544-4.839-8.446-10.112-8.391-15.249c0.048-4.464,2.287-8.672,6.476-12.172l1.332,1.595
				c-3.708,3.097-5.689,6.763-5.73,10.599c-0.049,4.511,2.607,9.235,7.679,13.663L28.808,93.003z"/>
		</g>
	</g>
	<circle fill="none" stroke="#333333" stroke-width="4.026" stroke-miterlimit="10" cx="49.707" cy="49.966" r="47"/>
</g>
</svg>
