<?xml version="1.0" encoding="utf-8"?>
<!-- Generator: Adobe Illustrator 17.0.0, SVG Export Plug-In . SVG Version: 6.00 Build 0)  -->
<!DOCTYPE svg PUBLIC "-//W3C//DTD SVG 1.1//EN" "http://www.w3.org/Graphics/SVG/1.1/DTD/svg11.dtd">
<svg version="1.1" id="Layer_1" xmlns="http://www.w3.org/2000/svg" xmlns:xlink="http://www.w3.org/1999/xlink" x="0px" y="0px"
	 width="70px" height="42px" viewBox="257.307 392.945 70 42" enable-background="new 257.307 392.945 70 42" xml:space="preserve">
<g>
	<path fill="#FFFFFF" d="M261.736,408.423c-0.014-0.25,0.049-0.496,0.184-0.736c0.136-0.24,0.31-0.438,0.522-0.588
		c0.209-0.152,0.453-0.241,0.723-0.272c0.271-0.029,0.544,0.044,0.816,0.215c0.323,0.172,0.602,0.265,0.835,0.277
		c0.235,0.011,0.422-0.009,0.559-0.064c0.168-0.072,0.305-0.173,0.407-0.302c0.413-0.473,0.841-0.838,1.279-1.095
		c0.379-0.22,0.791-0.339,1.234-0.354c0.444-0.014,0.874,0.216,1.288,0.695c0.418,0.542,0.763,0.946,1.032,1.214
		c0.272,0.266,0.508,0.442,0.705,0.525c0.201,0.085,0.384,0.095,0.554,0.031c0.168-0.064,0.355-0.152,0.56-0.262
		c0.204-0.111,0.444-0.233,0.72-0.362c0.273-0.131,0.628-0.223,1.062-0.277c0.713-0.099,1.343-0.041,1.895,0.174
		c0.549,0.214,1.024,0.518,1.426,0.913c0.403,0.392,0.724,0.836,0.968,1.332c0.244,0.494,0.415,0.96,0.514,1.39
		c0.02,0.389,0.053,0.742,0.101,1.049c0.046,0.312,0.124,0.682,0.23,1.114c0.109,0.431,0.24,0.969,0.399,1.618
		c0.157,0.647,0.357,1.503,0.596,2.568c0.024,0.451,0.064,0.907,0.118,1.365c0.053,0.457,0.042,0.872-0.033,1.243
		c-0.075,0.371-0.255,0.676-0.538,0.917c-0.284,0.241-0.747,0.378-1.386,0.409c-0.513,0.025-0.93-0.083-1.245-0.323
		c-0.317-0.244-0.571-0.573-0.764-0.992c-0.194-0.42-0.329-0.893-0.411-1.42c-0.081-0.527-0.14-1.067-0.175-1.619
		c-0.036-0.554-0.052-1.086-0.047-1.601c0.006-0.515,0-0.968-0.021-1.358c0.089-1.019,0-1.787-0.268-2.304
		c-0.268-0.519-0.662-0.825-1.181-0.924c-0.254-0.048-0.471-0.015-0.653,0.104c-0.18,0.117-0.312,0.284-0.393,0.499
		c-0.086,0.214-0.119,0.46-0.106,0.731c0.014,0.273,0.097,0.53,0.251,0.773c0.075,0.309,0.119,0.626,0.129,0.952
		c0.008,0.328-0.047,0.63-0.163,0.911c-0.12,0.277-0.311,0.516-0.574,0.706c-0.266,0.196-0.622,0.301-1.074,0.324
		c-0.376-0.044-0.677-0.216-0.903-0.517c-0.227-0.301-0.395-0.623-0.505-0.969c-0.113-0.346-0.182-0.67-0.214-0.974
		c-0.03-0.302-0.047-0.492-0.053-0.571c-0.003-0.064-0.01-0.163-0.026-0.304c-0.014-0.138-0.049-0.277-0.102-0.415
		c-0.054-0.138-0.135-0.26-0.242-0.363c-0.105-0.104-0.253-0.151-0.439-0.141c-0.207-0.051-0.38,0-0.519,0.154
		c-0.14,0.155-0.268,0.345-0.381,0.569c-0.129,0.257-0.23,0.558-0.306,0.907c-0.017,0.593-0.041,1.18-0.075,1.759
		c-0.021,0.502-0.052,1.03-0.096,1.585c-0.041,0.558-0.084,1.065-0.123,1.517c-0.04,0.453-0.072,0.869-0.1,1.247
		c-0.028,0.375-0.091,0.686-0.189,0.934c-0.095,0.246-0.248,0.411-0.454,0.503c-0.207,0.087-0.499,0.071-0.88-0.051
		c-0.454-0.038-0.785-0.19-0.994-0.453c-0.209-0.262-0.345-0.547-0.406-0.857c-0.08-0.354-0.085-0.744-0.013-1.171
		c0.06-0.674,0.113-1.315,0.16-1.928c0.052-0.516,0.093-1.029,0.121-1.54c0.03-0.508,0.038-0.888,0.025-1.135
		c-0.018-0.327-0.041-0.657-0.074-0.99c-0.033-0.334-0.107-0.637-0.222-0.904s-0.283-0.48-0.5-0.642
		c-0.219-0.157-0.522-0.23-0.912-0.211c-0.392-0.058-0.7-0.206-0.923-0.445c-0.223-0.239-0.387-0.49-0.494-0.75
		C261.85,409.157,261.772,408.81,261.736,408.423z"/>
	<path fill="#FFFFFF" d="M285.519,406.603c0.578,0.074,1.066,0.234,1.465,0.485c0.398,0.247,0.724,0.548,0.976,0.901
		c0.252,0.351,0.445,0.731,0.574,1.138c0.13,0.406,0.222,0.798,0.279,1.177c0.053,0.379,0.082,0.722,0.082,1.031
		c-0.001,0.308-0.004,0.532-0.01,0.674c-0.008,0.183-0.052,0.424-0.127,0.725c-0.077,0.302-0.203,0.622-0.378,0.959
		c-0.178,0.335-0.409,0.665-0.701,0.986c-0.292,0.32-0.648,0.594-1.067,0.824c-0.421,0.227-0.917,0.381-1.487,0.463
		c-0.569,0.08-1.224,0.047-1.966-0.102c-0.532-0.113-0.988-0.294-1.364-0.542c-0.378-0.248-0.69-0.54-0.941-0.878
		c-0.248-0.336-0.445-0.701-0.588-1.093c-0.145-0.395-0.252-0.787-0.327-1.178c-0.163-0.917-0.165-1.923-0.009-3.018
		c0.15-0.4,0.347-0.775,0.594-1.126c0.249-0.351,0.587-0.646,1.017-0.887c0.428-0.24,0.962-0.412,1.604-0.516
		C283.784,406.522,284.576,406.516,285.519,406.603z M286.981,412.082c-0.012-0.064-0.025-0.176-0.039-0.33
		c-0.014-0.153-0.039-0.325-0.075-0.516c-0.035-0.186-0.087-0.385-0.157-0.593c-0.068-0.207-0.162-0.397-0.283-0.571
		c-0.12-0.173-0.273-0.32-0.458-0.443c-0.185-0.12-0.411-0.192-0.679-0.21c-0.451-0.06-0.836-0.066-1.156-0.017
		c-0.319,0.051-0.584,0.139-0.795,0.268c-0.211,0.127-0.377,0.283-0.498,0.467c-0.123,0.186-0.213,0.381-0.272,0.589
		c-0.075,0.532-0.07,1.026,0.015,1.48c0.036,0.19,0.088,0.379,0.159,0.571c0.07,0.194,0.171,0.369,0.299,0.531
		c0.129,0.163,0.283,0.301,0.461,0.422c0.179,0.117,0.4,0.2,0.664,0.248c0.567,0.099,1.034,0.074,1.402-0.072
		c0.37-0.149,0.661-0.344,0.876-0.584c0.213-0.242,0.361-0.485,0.441-0.731C286.969,412.347,287,412.178,286.981,412.082z"/>
	<path fill="#FFFFFF" d="M297.845,408.5c0.308,0.056,0.604,0.176,0.886,0.353c0.284,0.176,0.532,0.4,0.744,0.67
		c0.212,0.268,0.372,0.578,0.484,0.932c0.111,0.35,0.149,0.736,0.113,1.154c0.013,0.279-0.021,0.614-0.103,1.003
		c-0.08,0.388-0.206,0.797-0.375,1.227c-0.17,0.43-0.383,0.865-0.641,1.307c-0.258,0.44-0.563,0.849-0.917,1.224
		c-0.354,0.374-0.752,0.7-1.194,0.977c-0.444,0.276-0.931,0.465-1.465,0.565c-1.102,0.092-2.007-0.041-2.717-0.394
		c-0.709-0.356-1.268-0.827-1.674-1.412c-0.407-0.586-0.676-1.238-0.811-1.957c-0.136-0.721-0.177-1.407-0.12-2.062
		c0.058-0.306,0.099-0.692,0.12-1.16c0.021-0.467,0.028-0.976,0.021-1.529c-0.006-0.55-0.026-1.126-0.055-1.725
		c-0.029-0.597-0.06-1.188-0.094-1.774c-0.09-1.361-0.2-2.811-0.338-4.354c0.013-0.284,0.054-0.638,0.13-1.056
		c0.074-0.419,0.215-0.814,0.422-1.187c0.207-0.374,0.494-0.693,0.862-0.955c0.37-0.262,0.848-0.391,1.441-0.387
		c0.432,0.036,0.775,0.167,1.03,0.395c0.255,0.227,0.442,0.526,0.563,0.897c0.122,0.368,0.18,0.791,0.181,1.266
		c0,0.475-0.027,0.98-0.082,1.509c-0.054,0.532-0.135,1.074-0.244,1.628c-0.108,0.554-0.207,1.097-0.299,1.628
		c-0.139,0.502-0.162,0.919-0.073,1.257c0.09,0.337,0.255,0.617,0.496,0.842c0.241,0.223,0.531,0.401,0.871,0.53
		c0.339,0.128,0.686,0.231,1.04,0.305c0.356,0.074,0.693,0.13,1.015,0.164C297.385,408.421,297.645,408.459,297.845,408.5z
		 M296.367,413.346c-0.031-0.174-0.037-0.356-0.015-0.545c0.022-0.19,0.015-0.382-0.021-0.565c-0.033-0.188-0.131-0.358-0.289-0.514
		c-0.158-0.157-0.441-0.288-0.845-0.391c-0.372,0.069-0.732,0.171-1.083,0.301c-0.348,0.13-0.669,0.401-0.963,0.819
		c-0.058,0.306-0.063,0.59-0.014,0.852c0.044,0.223,0.146,0.451,0.312,0.683c0.168,0.231,0.445,0.4,0.839,0.508
		c0.394,0.105,0.724,0.106,0.994,0.005c0.27-0.103,0.486-0.24,0.647-0.412C296.123,413.896,296.271,413.649,296.367,413.346z"/>
	<path fill="#FFFFFF" d="M303.063,407.46c0.198,0.064,0.375,0.2,0.531,0.404c0.174,0.245,0.338,0.567,0.485,0.963
		c0.154,0.696,0.303,1.354,0.453,1.976c0.06,0.266,0.12,0.536,0.178,0.812c0.057,0.278,0.113,0.541,0.171,0.791
		c0.058,0.25,0.111,0.483,0.157,0.698c0.047,0.215,0.082,0.389,0.107,0.523c0.054,0.289,0.087,0.593,0.099,0.916
		c0.013,0.322-0.021,0.629-0.105,0.922c-0.083,0.292-0.229,0.549-0.439,0.77c-0.207,0.221-0.509,0.367-0.898,0.44
		c-0.391,0.073-0.717,0.041-0.978-0.102c-0.262-0.141-0.466-0.339-0.614-0.587c-0.147-0.25-0.246-0.52-0.29-0.816
		c-0.046-0.295-0.052-0.557-0.02-0.786c-0.01-0.223-0.007-0.516,0.01-0.882c0.016-0.364,0.025-0.752,0.028-1.162
		c0.003-0.41-0.003-0.825-0.018-1.243c-0.016-0.418-0.053-0.786-0.111-1.104c-0.038-0.366-0.025-0.684,0.036-0.95
		c0.062-0.267,0.133-0.494,0.215-0.68c0.099-0.21,0.218-0.392,0.36-0.547C302.651,407.516,302.866,407.398,303.063,407.46z
		 M301.038,405.361c0.045,0.212,0.124,0.4,0.235,0.56c0.111,0.162,0.26,0.283,0.45,0.362c0.192,0.083,0.427,0.097,0.705,0.044
		c0.317-0.061,0.558-0.157,0.72-0.288c0.161-0.132,0.264-0.29,0.31-0.473c0.044-0.185,0.054-0.389,0.027-0.614
		c-0.025-0.224-0.062-0.459-0.109-0.705c-0.041-0.215-0.124-0.385-0.247-0.505c-0.124-0.12-0.27-0.203-0.439-0.246
		c-0.167-0.042-0.342-0.046-0.527-0.013c-0.186,0.036-0.359,0.105-0.52,0.21c-0.161,0.104-0.29,0.217-0.383,0.336
		c-0.097,0.119-0.165,0.224-0.213,0.318c-0.05,0.127-0.08,0.245-0.091,0.355C300.965,404.925,300.992,405.144,301.038,405.361z"/>
	<path fill="#FFFFFF" d="M304.834,401.842c-0.03-0.223-0.02-0.448,0.033-0.681c0.049-0.23,0.157-0.436,0.318-0.62
		c0.161-0.182,0.424-0.281,0.786-0.3c0.281,0.012,0.532,0.116,0.753,0.316c0.22,0.198,0.419,0.444,0.594,0.741
		c0.176,0.295,0.327,0.628,0.452,0.996c0.128,0.368,0.233,0.731,0.32,1.087c0.087,0.358,0.151,0.7,0.194,1.027
		c0.043,0.328,0.064,0.593,0.064,0.795c0.024,0.135,0.071,0.361,0.137,0.676c0.066,0.316,0.142,0.694,0.232,1.132
		c0.089,0.439,0.188,0.914,0.296,1.426c0.11,0.51,0.218,1.026,0.33,1.55c0.266,1.214,0.555,2.551,0.869,4.009
		c0.188,0.468,0.296,0.898,0.317,1.285c0.025,0.338-0.028,0.66-0.159,0.961c-0.134,0.303-0.426,0.498-0.878,0.583
		c-0.276,0.077-0.517,0.108-0.723,0.091c-0.207-0.019-0.386-0.068-0.538-0.147c-0.155-0.08-0.289-0.182-0.401-0.313
		c-0.114-0.13-0.204-0.272-0.271-0.424c-0.179-0.345-0.283-0.769-0.314-1.269l-2.344-12.437
		C304.886,402.222,304.862,402.064,304.834,401.842z"/>
	<path fill="#FFFFFF" d="M318.431,412.752c-0.433,0.016-0.773,0.06-1.019,0.134c-0.247,0.074-0.425,0.165-0.532,0.277
		c-0.108,0.108-0.153,0.239-0.135,0.393c0.017,0.152,0.075,0.314,0.174,0.484c0.098,0.17,0.232,0.263,0.401,0.275
		c0.171,0.014,0.349-0.015,0.538-0.083c0.186-0.069,0.37-0.16,0.549-0.271c0.181-0.113,0.323-0.206,0.432-0.283
		c0.053-0.076,0.167-0.15,0.345-0.224c0.174-0.073,0.371-0.08,0.587-0.026c0.216,0.054,0.425,0.2,0.627,0.439
		c0.2,0.24,0.354,0.636,0.456,1.184c0.05,0.268-0.035,0.555-0.256,0.858c-0.22,0.305-0.535,0.578-0.94,0.822
		c-0.406,0.243-0.878,0.44-1.416,0.593c-0.54,0.15-1.1,0.214-1.676,0.19c-0.58-0.025-1.162-0.16-1.747-0.4
		c-0.586-0.24-1.121-0.626-1.605-1.157c-0.485-0.535-0.902-1.239-1.25-2.114c-0.347-0.875-0.584-1.957-0.705-3.251
		c0.003-0.935,0.141-1.786,0.422-2.551c0.118-0.322,0.273-0.647,0.461-0.974c0.188-0.325,0.424-0.622,0.709-0.893
		c0.283-0.271,0.62-0.501,1.013-0.692c0.393-0.192,0.851-0.318,1.373-0.383c1.033-0.139,1.891-0.114,2.579,0.074
		c0.687,0.187,1.246,0.466,1.68,0.836c0.43,0.37,0.753,0.802,0.97,1.296c0.212,0.494,0.367,0.983,0.46,1.467
		c0.091,0.484,0.09,0.947,0.003,1.387c-0.091,0.439-0.25,0.839-0.477,1.2c-0.226,0.362-0.516,0.662-0.865,0.907
		C319.234,412.513,318.85,412.673,318.431,412.752z M316.835,408.543c-0.171,0.031-0.336,0.105-0.494,0.217
		c-0.158,0.112-0.293,0.253-0.406,0.418c-0.113,0.168-0.197,0.345-0.251,0.532c-0.053,0.189-0.063,0.374-0.03,0.556
		c0.176,0.113,0.358,0.207,0.539,0.284c0.155,0.059,0.328,0.111,0.514,0.152c0.185,0.046,0.365,0.05,0.538,0.018l0.774-0.147
		c0.184-0.032,0.314-0.097,0.39-0.191c0.078-0.091,0.135-0.185,0.172-0.281c0.035-0.118,0.043-0.248,0.027-0.392
		c-0.034-0.182-0.07-0.359-0.107-0.531c-0.041-0.168-0.093-0.32-0.17-0.453c-0.073-0.13-0.168-0.228-0.28-0.29
		c-0.111-0.062-0.259-0.074-0.441-0.041L316.835,408.543z"/>
</g>
<g>
	<path fill="#FFFFFF" d="M292.939,422.919c-0.268-1.183-1.031-1.775-2.287-1.775h-4.77c0.378,0.067,0.665,0.395,0.665,0.792
		c0,0.429-0.337,0.776-0.759,0.801h4.99c0.159,0,0.3,0.065,0.422,0.196c0.123,0.13,0.184,0.281,0.184,0.455v0.65h-3.964
		c-0.832,0-1.463,0.299-1.89,0.896c-0.379,0.525-0.569,1.221-0.569,2.087v1.153c0,0.341,0.048,0.647,0.146,0.915
		c0.17,0.451,0.482,0.842,0.933,1.172c0.451,0.329,0.915,0.494,1.391,0.494h3.203c0.818,0,1.482-0.409,1.995-1.227
		c0.231-0.378,0.348-0.787,0.348-1.226v-4.942C292.975,423.261,292.963,423.115,292.939,422.919z M291.383,428.208
		c0,0.635-0.443,0.952-1.327,0.952h-2.176c-0.418,0-0.719-0.048-0.904-0.146c-0.283-0.146-0.424-0.415-0.424-0.805v-1.556
		c0-0.598,0.381-0.94,1.144-1.025h2.563c0.75,0.074,1.125,0.415,1.125,1.025V428.208L291.383,428.208z"/>
	<path fill="#FFFFFF" d="M285.74,422.74c0.016,0,0.031-0.003,0.047-0.004h-0.093C285.71,422.737,285.724,422.74,285.74,422.74z"/>
	<path fill="#FFFFFF" d="M284.935,421.935c0,0.064,0.009,0.126,0.024,0.186v-0.372C284.945,421.809,284.935,421.871,284.935,421.935
		z"/>
	<path fill="#FFFFFF" d="M286.546,421.935c0-0.397-0.287-0.725-0.665-0.792H285.6c-0.317,0.056-0.568,0.295-0.642,0.606v0.372
		c0.08,0.339,0.376,0.594,0.736,0.615h0.093C286.209,422.712,286.546,422.365,286.546,421.935z"/>
</g>
<g>
	<g>
		<path fill="#FFFFFF" d="M301.395,421.547c-0.367-0.268-0.891-0.403-1.575-0.403h-3.02c-0.781,0-1.394,0.211-1.84,0.632
			s-0.668,1.022-0.668,1.803v9.189v0.469c0.102,0.34,0.413,0.59,0.786,0.59c0.396,0,0.727-0.28,0.806-0.653v-0.344v-2.077h4.002
			c0.709,0,1.327-0.299,1.854-0.896c0.404-0.451,0.606-1.044,0.606-1.775v-4.613C302.346,422.662,302.029,422.022,301.395,421.547z
			 M300.754,428.206c0,0.086-0.006,0.147-0.018,0.184c-0.086,0.417-0.345,0.667-0.775,0.753c-0.025,0.012-0.062,0.018-0.111,0.018
			h-3.08c-0.173,0-0.369-0.091-0.59-0.275c-0.147-0.123-0.24-0.349-0.277-0.679c-0.012-0.025-0.018-0.086-0.018-0.184v-4.313
			c0-0.648,0.381-0.973,1.144-0.973h3.025c0.258,0.049,0.433,0.123,0.526,0.221s0.151,0.275,0.175,0.532v4.717H300.754z"/>
	</g>
</g>
<path fill="#FFFFFF" d="M310.794,421.547c-0.366-0.268-0.891-0.403-1.574-0.403h-3.02c-0.781,0-1.394,0.211-1.84,0.632
	s-0.668,1.022-0.668,1.803v9.189v0.469c0.102,0.34,0.413,0.59,0.786,0.59c0.396,0,0.727-0.28,0.806-0.653v-0.344v-2.077h4.002
	c0.709,0,1.327-0.299,1.854-0.896c0.404-0.451,0.606-1.044,0.606-1.775v-4.613C311.745,422.662,311.428,422.022,310.794,421.547z
	 M310.153,428.206c0,0.086-0.006,0.147-0.018,0.184c-0.086,0.417-0.345,0.667-0.775,0.753c-0.025,0.012-0.062,0.018-0.111,0.018
	h-3.08c-0.172,0-0.369-0.091-0.59-0.275c-0.147-0.123-0.24-0.349-0.277-0.679c-0.012-0.025-0.018-0.086-0.018-0.184v-4.313
	c0-0.648,0.381-0.973,1.143-0.973h3.025c0.258,0.049,0.433,0.123,0.526,0.221c0.092,0.098,0.151,0.275,0.175,0.532L310.153,428.206
	L310.153,428.206z"/>
<g>
	<path fill="#FFFFFF" d="M319.974,430.759c0.019,0,0.038-0.004,0.058-0.006h-0.115C319.935,430.755,319.954,430.759,319.974,430.759
		z"/>
	<path fill="#FFFFFF" d="M320.778,429.897v0.105c0.001-0.018,0.005-0.035,0.005-0.052
		C320.783,429.932,320.779,429.915,320.778,429.897z"/>
	<path fill="#FFFFFF" d="M320.148,429.16h-0.349h-5.116l6.058-6.059c0.207-0.207,0.274-0.537,0.201-0.988
		c-0.098-0.647-0.506-0.97-1.226-0.97h-5.806h-0.497c-0.339,0.107-0.587,0.419-0.587,0.792c0,0.382,0.258,0.7,0.608,0.8h0.455h4.94
		l-5.971,5.972c-0.26,0.256-0.366,0.584-0.317,0.986c0.086,0.706,0.457,1.059,1.117,1.059h6.259h0.115
		c0.401-0.029,0.72-0.348,0.746-0.75v-0.107C320.753,429.534,320.494,429.237,320.148,429.16z"/>
</g>
</svg>
