<?xml version="1.0" encoding="utf-8"?>
<!-- Generator: Adobe Illustrator 17.0.0, SVG Export Plug-In . SVG Version: 6.00 Build 0)  -->
<!DOCTYPE svg PUBLIC "-//W3C//DTD SVG 1.1//EN" "http://www.w3.org/Graphics/SVG/1.1/DTD/svg11.dtd">
<svg version="1.1" id="Layer_1" xmlns="http://www.w3.org/2000/svg" xmlns:xlink="http://www.w3.org/1999/xlink" x="0px" y="0px"
	 width="93px" height="100px" viewBox="0 0 93 100" enable-background="new 0 0 93 100" xml:space="preserve">
<g>
	<circle fill="#FFFFFF" stroke="#333333" stroke-width="3.4692" stroke-miterlimit="10" cx="47.707" cy="50.433" r="40.5"/>
	<g>
		<circle fill="#FFFFFF" stroke="#58595B" stroke-width="1.1564" stroke-miterlimit="10" cx="57.648" cy="34.748" r="15.548"/>
		<path fill="none" stroke="#000000" stroke-width="2.3128" stroke-linecap="round" stroke-miterlimit="10" d="M51.647,49.095
			c-2.606-1.087-4.81-2.844-6.441-5.022"/>
		<path d="M28.35,78.981c-0.374,0.502-1.076,0.613-1.568,0.246l-3.092-2.3c-0.492-0.366-0.589-1.07-0.215-1.573l16.608-22.328
			c0.374-0.502,1.076-0.613,1.568-0.246l3.092,2.3c0.492,0.366,0.589,1.07,0.215,1.573L28.35,78.981z"/>
		<g>
			<path fill="#BCBEC0" d="M27.88,78.098c-0.267,0.363-0.726,0.483-1.02,0.266c-0.294-0.216-0.316-0.69-0.048-1.053l15.965-21.676
				c0.267-0.363,0.726-0.483,1.02-0.266c0.294,0.216,0.316,0.69,0.048,1.053L27.88,78.098z"/>
		</g>
		<g>
			<g>
				<g>
					<path fill="#939598" d="M43.064,50.682c-0.215,0.29-0.154,0.702,0.136,0.917l2.516,1.864c0.29,0.215,0.703,0.153,0.918-0.136
						l1.353-1.823c0.215-0.29,0.154-0.702-0.136-0.917l-2.516-1.864c-0.29-0.215-0.703-0.153-0.918,0.136L43.064,50.682z"/>
				</g>
				<g>
					<path fill="#939598" d="M41.846,52.323c-0.128,0.172,0.005,0.488,0.295,0.703l2.514,1.866c0.29,0.215,0.631,0.249,0.76,0.077
						s-0.004-0.49-0.294-0.704l-2.516-1.864C42.315,52.186,41.973,52.151,41.846,52.323z"/>
				</g>
				<g>
					<path fill="#939598" d="M42.375,51.609c-0.12,0.161,0.019,0.469,0.309,0.684l2.516,1.864c0.29,0.215,0.625,0.258,0.745,0.097
						s-0.019-0.469-0.309-0.684l-2.516-1.864C42.83,51.492,42.495,51.448,42.375,51.609z"/>
				</g>
				<g>
					<path fill="#939598" d="M49.285,49.753c0.152-0.205,0.04-0.548-0.25-0.763l-2.514-1.866c-0.29-0.215-0.651-0.222-0.804-0.016
						c-0.153,0.206-0.041,0.55,0.249,0.765l2.516,1.864C48.772,49.95,49.133,49.958,49.285,49.753z"/>
				</g>
				<g>
					<path fill="#939598" d="M45.886,47.979c-0.29-0.215-0.633-0.247-0.763-0.072c-0.13,0.175,0.001,0.494,0.291,0.708l2.516,1.864
						c0.29,0.215,0.633,0.247,0.763,0.072c0.13-0.175-0.001-0.494-0.291-0.708L45.886,47.979z"/>
				</g>
			</g>
		</g>
		<g>
			<path d="M44.148,54.187c-0.267,0.363-0.726,0.483-1.02,0.266c-0.294-0.216-0.316-0.69-0.048-1.053l3.965-5.383
				c0.267-0.363,0.726-0.483,1.02-0.266c0.294,0.216,0.316,0.69,0.048,1.053L44.148,54.187z"/>
		</g>
	</g>
	<g>
		<path fill="#F1F2F2" d="M65.206,25.007L50.54,44.823c1.39,0.982,3.005,1.694,4.786,2.035c6.688,1.282,13.149-3.1,14.432-9.788
			C70.661,32.358,68.751,27.762,65.206,25.007z"/>
	</g>
	<g>
		<path fill="#FFFFFF" d="M62.75,28.391l-9.938,12.911c0.95,0.702,2.063,1.215,3.301,1.453c4.422,0.848,8.695-2.05,9.542-6.472
			C66.243,33.215,65.026,30.222,62.75,28.391z"/>
	</g>
</g>
</svg>
