<?xml version="1.0" encoding="utf-8"?>
<!-- Generator: Adobe Illustrator 17.0.0, SVG Export Plug-In . SVG Version: 6.00 Build 0)  -->
<!DOCTYPE svg PUBLIC "-//W3C//DTD SVG 1.1//EN" "http://www.w3.org/Graphics/SVG/1.1/DTD/svg11.dtd">
<svg version="1.1" id="Layer_1" xmlns="http://www.w3.org/2000/svg" xmlns:xlink="http://www.w3.org/1999/xlink" x="0px" y="0px"
	 width="93px" height="100px" viewBox="0 0 93 100" enable-background="new 0 0 93 100" xml:space="preserve">
<g>
	<circle fill="#FFFFFF" stroke="#333333" stroke-width="3.4692" stroke-miterlimit="10" cx="47.707" cy="50.6" r="40.5"/>
	<g>
		<g>
			<path fill="#A7A9AC" d="M28.362,76.112l7.842-6.618l-3.992-3.176l-4.799,9.038C27.746,75.564,28.064,75.818,28.362,76.112z"/>
			<path fill="#414042" d="M28.362,76.112c-0.298-0.294-0.615-0.548-0.949-0.756l-1.498,2.822L28.362,76.112z"/>
		</g>
		<path d="M68.006,24.279c-0.418-0.307-1.029-0.231-1.358,0.17L32.78,65.686c-0.329,0.401-0.257,0.98,0.161,1.287l2.506,1.843
			c0.418,0.307,1.029,0.231,1.358-0.17l33.868-41.237c0.329-0.401,0.257-0.98-0.161-1.287L68.006,24.279z"/>
		<path fill="#414042" d="M60.682,33.194c-0.418-0.307-1.029-0.231-1.358,0.17L32.107,66.502c-0.329,0.401,3.697,3.361,4.026,2.96
			l27.216-33.139c0.329-0.401,0.257-0.98-0.161-1.287L60.682,33.194z"/>
		<g>
			<polygon fill="#BCBEC0" points="69.561,29.04 69.56,29.027 65.25,25.858 65.236,25.859 63.615,27.832 63.617,27.845 
				67.927,31.014 67.94,31.013 			"/>
			<polygon fill="#BCBEC0" points="62.023,29.771 62.024,29.783 66.334,32.953 66.348,32.951 66.752,32.459 66.751,32.446 
				62.441,29.277 62.427,29.278 			"/>
			<polygon fill="#BCBEC0" points="58.636,33.892 58.638,33.905 62.948,37.074 62.961,37.072 65.956,33.428 65.954,33.415 
				61.644,30.246 61.631,30.247 			"/>
			<polygon fill="#BCBEC0" points="63.237,28.308 63.223,28.309 62.819,28.801 62.82,28.814 67.13,31.983 67.144,31.982 
				67.549,31.49 67.547,31.477 			"/>
		</g>
		<polygon fill="#939598" points="66.575,26.832 66.562,26.834 59.962,34.867 59.963,34.88 60.925,35.587 60.938,35.585 
			67.538,27.552 67.537,27.539 		"/>
		<polygon points="68.45,24.607 68.436,24.608 66.596,26.848 66.598,26.861 67.559,27.568 67.573,27.566 69.413,25.327 
			69.411,25.314 		"/>
		<polygon fill="#D1D3D4" points="66.067,26.453 66.053,26.455 32.641,67.138 32.643,67.15 33.104,67.49 33.118,67.488 
			66.53,26.806 66.529,26.793 		"/>
		<g>
			<polygon fill="#58595B" points="59.474,34.479 59.46,34.481 32.549,67.252 32.55,67.265 33.011,67.604 33.024,67.602 
				59.932,34.835 59.931,34.822 			"/>
			<polygon fill="#D1D3D4" points="66.531,26.808 66.529,26.795 66.066,26.454 66.052,26.455 59.452,34.509 59.454,34.522 
				59.914,34.868 59.928,34.866 			"/>
		</g>
		<polygon fill="#939598" points="61.643,30.233 61.644,30.246 65.954,33.415 65.968,33.413 66.336,32.965 66.334,32.953 
			62.024,29.783 62.011,29.785 		"/>
		<polygon fill="#939598" points="62.439,29.264 62.441,29.277 66.751,32.446 66.764,32.444 67.132,31.996 67.13,31.983 
			62.82,28.814 62.807,28.816 		"/>
		<polygon fill="#939598" points="67.928,31.027 67.927,31.014 63.617,27.845 63.603,27.847 63.235,28.295 63.237,28.308 
			67.547,31.477 67.56,31.475 		"/>
	</g>
</g>
</svg>
