<?xml version="1.0" encoding="utf-8"?>
<!-- Generator: Adobe Illustrator 17.0.0, SVG Export Plug-In . SVG Version: 6.00 Build 0)  -->
<!DOCTYPE svg PUBLIC "-//W3C//DTD SVG 1.1//EN" "http://www.w3.org/Graphics/SVG/1.1/DTD/svg11.dtd">
<svg version="1.1" id="Layer_1" xmlns="http://www.w3.org/2000/svg" xmlns:xlink="http://www.w3.org/1999/xlink" x="0px" y="0px"
	 width="93px" height="100px" viewBox="0 0 93 100" enable-background="new 0 0 93 100" xml:space="preserve">
<circle fill="#FFFFFF" stroke="#333333" stroke-width="3.4692" stroke-miterlimit="10" cx="47.288" cy="50.433" r="40.5"/>
<g>
	<path fill="#414042" d="M67.051,78.6c0,1.21-0.981,2.191-2.191,2.191H29.717c-1.21,0-2.191-0.981-2.191-2.191V25.097
		c0-1.21,0.981-2.191,2.191-2.191H64.86c1.21,0,2.191,0.981,2.191,2.191V78.6z"/>
	<rect x="29.439" y="27.511" fill="#FFFFFF" width="35.553" height="51.311"/>
	<path fill="#58595B" d="M57.372,32.185c0,0,1.032-2.437-1.485-2.834c-2.462-0.387-2.922-0.533-2.922-0.533
		s-0.799-0.024-0.751-1.308c0,0,0.121-2.446,0.073-2.712c-0.048-0.266-0.412-0.387-0.799-0.46c-0.387-0.073-1.332-0.848-1.453-1.647
		s-0.242-2.495-2.519-2.616h-0.057c-2.277,0.121-2.398,1.816-2.519,2.616s-1.066,1.574-1.453,1.647
		c-0.388,0.073-0.751,0.194-0.799,0.46c-0.048,0.266,0.073,2.712,0.073,2.712c0.048,1.284-0.751,1.308-0.751,1.308
		s-0.46,0.145-2.922,0.533c-2.517,0.396-1.485,2.834-1.485,2.834H57.372z"/>
	<circle fill="#FFFFFF" cx="47.353" cy="22.376" r="1.389"/>
</g>
</svg>
