<?xml version="1.0" encoding="utf-8"?>
<!-- Generator: Adobe Illustrator 17.0.0, SVG Export Plug-In . SVG Version: 6.00 Build 0)  -->
<!DOCTYPE svg PUBLIC "-//W3C//DTD SVG 1.1//EN" "http://www.w3.org/Graphics/SVG/1.1/DTD/svg11.dtd">
<svg version="1.1" id="Layer_1" xmlns="http://www.w3.org/2000/svg" xmlns:xlink="http://www.w3.org/1999/xlink" x="0px" y="0px"
	 width="93px" height="100px" viewBox="0 0 93 100" enable-background="new 0 0 93 100" xml:space="preserve">
<g>
	<circle fill="#FFFFFF" stroke="#333333" stroke-width="3.5549" stroke-miterlimit="10" cx="47.416" cy="50.474" r="41.5"/>
	<g>
		<path fill="none" d="M36.942,29.065c-6.163,0-11.177,5.014-11.177,11.177s5.014,11.177,11.177,11.177
			c6.163,0,11.177-5.014,11.177-11.177S43.105,29.065,36.942,29.065z"/>
		<g>
			<path fill="#414042" d="M36.626,58.462c-0.636-0.004-1.15-0.524-1.146-1.161l0.018-2.802L35.3,54.477
				c-1.099-0.127-2.176-0.378-3.202-0.748l-0.188-0.067l-1.227,2.518c-0.192,0.394-0.601,0.647-1.042,0.647
				c-0.175,0-0.344-0.039-0.501-0.116l-0.362-0.176c-0.572-0.279-0.81-0.972-0.532-1.543l1.23-2.524l-0.168-0.105
				c-0.929-0.587-1.79-1.279-2.561-2.06l-0.14-0.142l-2.201,1.744c-0.205,0.162-0.452,0.247-0.714,0.247
				c-0.356,0-0.687-0.158-0.907-0.435l-0.25-0.316c-0.396-0.499-0.311-1.226,0.188-1.621l2.201-1.743l-0.106-0.169
				c-0.586-0.929-1.065-1.925-1.423-2.962l-0.065-0.188l-2.733,0.619c-0.083,0.019-0.168,0.029-0.253,0.029
				c-0.535,0-1.008-0.378-1.126-0.899l-0.089-0.393c-0.068-0.299-0.015-0.608,0.15-0.87c0.165-0.261,0.42-0.443,0.719-0.51
				l2.733-0.619l-0.023-0.198c-0.064-0.557-0.096-1.106-0.096-1.633c0-0.538,0.032-1.08,0.099-1.656l0.023-0.198L20,37.765
				c-0.62-0.142-1.009-0.761-0.868-1.381l0.09-0.393c0.119-0.52,0.592-0.897,1.126-0.897c0.085,0,0.171,0.01,0.255,0.029
				l2.732,0.623l0.065-0.188c0.36-1.037,0.84-2.033,1.428-2.96l0.107-0.169l-2.198-1.747c-0.24-0.191-0.392-0.465-0.427-0.772
				s0.051-0.608,0.242-0.849l0.251-0.316c0.219-0.276,0.549-0.434,0.905-0.434c0.263,0,0.511,0.086,0.716,0.249l2.198,1.748
				l0.14-0.142c0.769-0.776,1.632-1.468,2.564-2.056l0.168-0.106l-1.226-2.525c-0.278-0.572-0.038-1.264,0.534-1.542l0.362-0.175
				c0.158-0.077,0.326-0.115,0.5-0.115c0.442,0,0.851,0.254,1.042,0.649l1.223,2.52l0.188-0.067c1.03-0.369,2.108-0.619,3.203-0.743
				l0.198-0.022l-0.013-2.802c-0.001-0.307,0.118-0.597,0.335-0.816c0.218-0.22,0.506-0.341,0.813-0.343l0.403-0.002
				c0.638,0,1.156,0.515,1.159,1.148l0.013,2.8l0.198,0.021c1.196,0.124,2.375,0.399,3.504,0.82l0.187,0.07l1.254-2.504
				c0.196-0.393,0.593-0.636,1.036-0.636c0.179,0,0.352,0.041,0.512,0.122l0.36,0.181c0.274,0.137,0.479,0.375,0.577,0.668
				s0.076,0.606-0.062,0.88l-1.257,2.51l0.167,0.108c0.92,0.596,1.774,1.299,2.536,2.088l0.139,0.144l2.222-1.721
				c0.203-0.157,0.446-0.24,0.704-0.24c0.361,0,0.695,0.163,0.914,0.445l0.247,0.319c0.188,0.242,0.271,0.544,0.231,0.852
				c-0.039,0.307-0.194,0.579-0.437,0.767l-2.218,1.718l0.104,0.17c0.573,0.929,1.04,1.932,1.389,2.979l0.062,0.189l2.741-0.589
				c0.079-0.017,0.16-0.026,0.241-0.026c0.54,0,1.015,0.383,1.129,0.911l0.085,0.394c0.064,0.3,0.007,0.608-0.16,0.868
				c-0.168,0.259-0.426,0.438-0.726,0.502l-2.736,0.589l0.021,0.198c0.05,0.49,0.075,0.987,0.075,1.478
				c0,0.588-0.039,1.197-0.118,1.81l-0.025,0.198l2.727,0.654c0.618,0.148,1.001,0.772,0.854,1.391l-0.095,0.392
				c-0.123,0.513-0.595,0.885-1.124,0.885l0,0c-0.089,0-0.179-0.01-0.267-0.031l-2.723-0.654l-0.067,0.188
				c-0.368,1.024-0.86,2.015-1.463,2.945l-0.108,0.167l2.178,1.771c0.238,0.193,0.388,0.47,0.419,0.777
				c0.032,0.307-0.057,0.608-0.25,0.845l-0.255,0.313c-0.219,0.27-0.546,0.425-0.897,0.425c-0.264,0-0.521-0.092-0.725-0.257
				l-2.18-1.772l-0.142,0.14c-0.782,0.773-1.652,1.456-2.585,2.03l-0.169,0.104l1.197,2.536c0.131,0.277,0.146,0.591,0.041,0.882
				s-0.314,0.522-0.592,0.653l-0.365,0.173c-0.154,0.072-0.318,0.109-0.488,0.109c-0.447,0-0.858-0.259-1.048-0.66l-1.196-2.535
				l-0.188,0.065c-1.048,0.362-2.128,0.603-3.21,0.713l-0.198,0.02l-0.018,2.8c-0.004,0.632-0.521,1.146-1.154,1.146L36.626,58.462z
				 M36.942,29.326c-6.02,0-10.917,4.897-10.917,10.917s4.897,10.917,10.917,10.917s10.917-4.897,10.917-10.917
				S42.961,29.326,36.942,29.326z"/>
			<path fill="#A7A9AC" d="M37.063,21.798l0.001,0.444c0.511,0,0.929,0.416,0.931,0.927l0.012,2.6l0.002,0.399l0.397,0.041
				c1.177,0.122,2.338,0.394,3.449,0.808l0.374,0.139l0.179-0.357l1.165-2.326c0.156-0.312,0.485-0.513,0.837-0.513
				c0.145,0,0.284,0.033,0.413,0.098l0.36,0.181c0.459,0.23,0.646,0.791,0.416,1.25l-1.168,2.332l-0.178,0.356l0.334,0.216
				c0.907,0.587,1.747,1.279,2.498,2.056l0.277,0.287l0.315-0.244l2.064-1.599c0.164-0.127,0.36-0.194,0.568-0.194
				c0.293,0,0.562,0.131,0.739,0.359l0.247,0.319c0.315,0.406,0.24,0.992-0.166,1.307l-2.06,1.596l-0.316,0.244l0.209,0.34
				c0.564,0.916,1.024,1.903,1.367,2.933l0.126,0.378l0.389-0.084l2.545-0.548c0.064-0.014,0.13-0.021,0.195-0.021
				c0.437,0,0.82,0.309,0.912,0.736l0.085,0.394c0.108,0.502-0.213,0.999-0.715,1.107l-2.542,0.547l-0.389,0.084l0.041,0.396
				c0.05,0.482,0.075,0.972,0.075,1.455c0,0.572-0.039,1.171-0.117,1.783l-0.05,0.395l0.387,0.093l2.532,0.607
				c0.499,0.12,0.808,0.624,0.689,1.123l-0.094,0.392c-0.099,0.414-0.481,0.714-0.908,0.714c-0.072,0-0.145-0.009-0.215-0.026
				l-2.53-0.607l-0.387-0.093l-0.135,0.375c-0.363,1.01-0.847,1.985-1.44,2.898l-0.217,0.335l0.31,0.252l2.024,1.645
				c0.192,0.156,0.312,0.379,0.337,0.627c0.026,0.249-0.046,0.491-0.202,0.683l-0.254,0.313c-0.177,0.218-0.441,0.342-0.725,0.342
				c-0.216,0-0.419-0.072-0.586-0.207l-2.024-1.646l-0.309-0.251l-0.283,0.28c-0.77,0.761-1.626,1.434-2.545,1.999l-0.339,0.208
				l0.17,0.36l1.112,2.356c0.106,0.224,0.117,0.476,0.033,0.712s-0.254,0.423-0.478,0.528l-0.365,0.172
				c-0.124,0.059-0.257,0.088-0.394,0.088c-0.361,0-0.694-0.209-0.846-0.533l-1.111-2.354l-0.17-0.361l-0.377,0.13
				c-1.031,0.357-2.094,0.593-3.16,0.702l-0.397,0.04l-0.002,0.399l-0.016,2.6c-0.003,0.51-0.421,0.926-0.937,0.926l-0.403-0.002
				c-0.247-0.002-0.48-0.1-0.656-0.278c-0.176-0.178-0.271-0.412-0.27-0.659l0.016-2.603l0.002-0.399l-0.396-0.045
				c-1.08-0.124-2.141-0.371-3.152-0.736l-0.375-0.135l-0.175,0.359l-1.14,2.338c-0.155,0.317-0.485,0.523-0.841,0.523
				c-0.141,0-0.277-0.031-0.404-0.093l-0.362-0.177c-0.462-0.225-0.654-0.784-0.429-1.245l1.143-2.344l0.174-0.358l-0.336-0.213
				c-0.917-0.58-1.765-1.262-2.521-2.028l-0.28-0.284l-0.312,0.247l-2.045,1.62c-0.165,0.131-0.364,0.2-0.576,0.2
				c-0.288,0-0.555-0.128-0.732-0.351l-0.25-0.316c-0.319-0.403-0.251-0.99,0.152-1.309l2.044-1.62l0.313-0.248l-0.213-0.338
				c-0.577-0.915-1.049-1.896-1.401-2.917l-0.13-0.376l-0.388,0.088l-2.539,0.575c-0.067,0.015-0.136,0.023-0.204,0.023
				c-0.432,0-0.815-0.305-0.91-0.726l-0.089-0.393c-0.055-0.241-0.011-0.49,0.122-0.702c0.133-0.211,0.339-0.358,0.581-0.412
				l2.538-0.575l0.388-0.088l-0.045-0.396c-0.063-0.549-0.094-1.09-0.094-1.608c0-0.524,0.033-1.072,0.097-1.63l0.046-0.396
				l-0.388-0.089l-2.538-0.579c-0.241-0.055-0.447-0.202-0.58-0.413c-0.133-0.212-0.176-0.461-0.121-0.702l0.09-0.393
				c0.096-0.42,0.478-0.724,0.91-0.724c0.069,0,0.138,0.008,0.206,0.023l2.538,0.579l0.388,0.089l0.131-0.376
				c0.354-1.02,0.827-2,1.406-2.914l0.214-0.337l-0.312-0.248l-2.042-1.623c-0.194-0.154-0.316-0.375-0.344-0.624
				c-0.028-0.248,0.041-0.492,0.195-0.685l0.251-0.316c0.177-0.223,0.444-0.35,0.731-0.35c0.213,0,0.412,0.069,0.577,0.201
				l2.042,1.623l0.312,0.248l0.28-0.283c0.757-0.764,1.606-1.445,2.525-2.024l0.337-0.212l-0.174-0.358l-1.139-2.346
				c-0.108-0.222-0.122-0.475-0.041-0.711c0.082-0.236,0.249-0.426,0.472-0.534l0.363-0.176c0.127-0.062,0.262-0.093,0.403-0.093
				c0.357,0,0.688,0.206,0.842,0.524l1.136,2.34l0.174,0.359l0.376-0.135c1.014-0.363,2.075-0.61,3.153-0.732l0.396-0.045
				l-0.002-0.399L35.73,23.18c-0.002-0.514,0.414-0.933,0.927-0.936l0.403-0.002L37.063,21.798l0,0.444L37.063,21.798
				 M36.942,51.381c6.142,0,11.139-4.997,11.139-11.139c0-6.142-4.997-11.139-11.139-11.139c-6.142,0-11.139,4.997-11.139,11.139
				C25.803,46.384,30.8,51.381,36.942,51.381 M37.065,21.798c-0.002,0-0.004,0-0.006,0L36.655,21.8
				c-0.757,0.004-1.373,0.626-1.369,1.382l0.012,2.602c-1.128,0.128-2.218,0.383-3.253,0.755l-1.136-2.34
				c-0.237-0.489-0.731-0.774-1.242-0.774c-0.201,0-0.405,0.044-0.597,0.137l-0.363,0.176c-0.681,0.33-0.967,1.158-0.637,1.838
				l1.139,2.346c-0.946,0.596-1.82,1.296-2.604,2.087l-2.042-1.623c-0.252-0.2-0.554-0.297-0.854-0.297
				c-0.406,0-0.808,0.178-1.079,0.518l-0.251,0.316c-0.471,0.592-0.372,1.462,0.221,1.933l2.042,1.623
				c-0.593,0.936-1.081,1.943-1.45,3.007l-2.538-0.579c-0.102-0.023-0.204-0.034-0.305-0.034c-0.627,0-1.198,0.434-1.343,1.07
				l-0.09,0.393c-0.168,0.738,0.297,1.479,1.035,1.647l2.538,0.579c-0.064,0.552-0.1,1.112-0.1,1.681
				c0,0.561,0.035,1.114,0.097,1.658l-2.538,0.575c-0.738,0.167-1.205,0.908-1.038,1.646l0.089,0.393
				c0.144,0.637,0.715,1.072,1.343,1.072c0.1,0,0.201-0.011,0.302-0.034l2.539-0.575c0.367,1.064,0.854,2.072,1.445,3.009
				l-2.044,1.62c-0.593,0.47-0.694,1.34-0.224,1.933l0.25,0.316c0.271,0.342,0.674,0.52,1.081,0.52c0.299,0,0.601-0.097,0.852-0.296
				l2.045-1.62c0.782,0.792,1.655,1.494,2.6,2.091l-1.143,2.344c-0.332,0.68-0.046,1.508,0.634,1.84l0.362,0.177
				c0.193,0.094,0.397,0.138,0.599,0.138c0.511,0,1.003-0.285,1.241-0.772l1.14-2.338c1.035,0.373,2.124,0.63,3.252,0.759
				L35.258,57.3c-0.005,0.757,0.61,1.38,1.367,1.384l0.403,0.003c0.003,0,0.006,0,0.009,0c0.753,0,1.371-0.613,1.376-1.367
				l0.016-2.6c1.13-0.115,2.221-0.364,3.26-0.724l1.111,2.354c0.234,0.496,0.732,0.788,1.248,0.788c0.196,0,0.395-0.042,0.583-0.131
				l0.365-0.172c0.684-0.323,0.98-1.147,0.657-1.831l-1.112-2.356c0.953-0.586,1.833-1.279,2.625-2.061l2.024,1.646
				c0.254,0.206,0.561,0.307,0.866,0.307c0.401,0,0.799-0.173,1.07-0.506l0.254-0.313c0.477-0.587,0.387-1.458-0.2-1.935
				l-2.024-1.645c0.603-0.93,1.105-1.931,1.485-2.99l2.53,0.607c0.107,0.026,0.214,0.038,0.319,0.038
				c0.621,0,1.189-0.426,1.34-1.055l0.094-0.392c0.176-0.736-0.281-1.482-1.017-1.659l-2.532-0.607
				c0.076-0.603,0.12-1.215,0.12-1.839c0-0.507-0.026-1.007-0.077-1.501l2.542-0.547c0.74-0.159,1.215-0.895,1.056-1.634
				l-0.085-0.394c-0.138-0.643-0.713-1.086-1.346-1.086c-0.095,0-0.191,0.01-0.288,0.031l-2.545,0.548
				c-0.356-1.068-0.83-2.083-1.411-3.026l2.06-1.596c0.598-0.463,0.708-1.332,0.245-1.93l-0.247-0.319
				c-0.27-0.349-0.678-0.532-1.09-0.532c-0.294,0-0.591,0.093-0.84,0.287l-2.064,1.599c-0.773-0.801-1.637-1.513-2.576-2.12
				l1.168-2.332c0.339-0.677,0.063-1.507-0.614-1.846l-0.36-0.181c-0.196-0.098-0.406-0.145-0.612-0.145
				c-0.505,0-0.994,0.279-1.234,0.759l-1.165,2.326c-1.127-0.42-2.32-0.706-3.559-0.834l-0.012-2.6
				C38.437,22.413,37.818,21.798,37.065,21.798L37.065,21.798z M36.942,50.937c-5.897,0-10.694-4.797-10.694-10.694
				s4.797-10.694,10.694-10.694c5.897,0,10.695,4.798,10.695,10.694S42.839,50.937,36.942,50.937L36.942,50.937z"/>
		</g>
	</g>
	<g>
		<path fill="none" d="M59.723,53.238c-5.369,0-9.736,4.368-9.736,9.736s4.368,9.736,9.736,9.736c5.369,0,9.736-4.368,9.736-9.736
			S65.091,53.238,59.723,53.238z"/>
		<g>
			<path fill="#414042" d="M59.449,78.816c-0.539-0.003-0.975-0.443-0.972-0.982l0.017-2.466l-0.198-0.022
				c-0.955-0.11-1.892-0.329-2.783-0.65l-0.188-0.067l-1.081,2.216c-0.162,0.333-0.508,0.548-0.881,0.548
				c-0.148,0-0.291-0.032-0.425-0.098l-0.314-0.153c-0.483-0.236-0.686-0.822-0.45-1.307l1.083-2.221l-0.169-0.105
				c-0.808-0.511-1.557-1.113-2.226-1.791l-0.14-0.142l-1.938,1.536c-0.174,0.137-0.382,0.209-0.604,0.209
				c-0.302,0-0.582-0.134-0.768-0.368l-0.218-0.275c-0.161-0.204-0.233-0.459-0.203-0.719s0.158-0.492,0.361-0.653l1.938-1.535
				l-0.107-0.169c-0.509-0.805-0.925-1.672-1.236-2.574l-0.064-0.188l-2.407,0.545c-0.07,0.016-0.143,0.024-0.214,0.024
				c-0.453,0-0.854-0.32-0.954-0.76l-0.078-0.343c-0.058-0.253-0.012-0.515,0.127-0.736c0.14-0.221,0.356-0.374,0.609-0.432
				l2.405-0.545l-0.022-0.198c-0.056-0.496-0.083-0.961-0.083-1.419c0-0.467,0.027-0.938,0.086-1.439l0.022-0.197l-2.405-0.55
				c-0.253-0.058-0.469-0.211-0.608-0.433s-0.184-0.482-0.126-0.735l0.079-0.343c0.1-0.44,0.5-0.759,0.952-0.759
				c0.072,0,0.145,0.008,0.216,0.024l2.405,0.548l0.065-0.188c0.312-0.9,0.73-1.767,1.241-2.573l0.107-0.169l-1.935-1.537
				c-0.422-0.335-0.492-0.95-0.157-1.373l0.219-0.273c0.186-0.234,0.465-0.368,0.766-0.368c0.223,0,0.433,0.073,0.605,0.211
				l1.936,1.538l0.141-0.142c0.665-0.673,1.415-1.274,2.228-1.787l0.169-0.105l-1.079-2.223c-0.234-0.484-0.032-1.07,0.451-1.305
				l0.316-0.153c0.134-0.064,0.275-0.097,0.423-0.097c0.374,0,0.72,0.215,0.882,0.549l1.076,2.218l0.188-0.067
				c0.896-0.321,1.833-0.538,2.784-0.646l0.197-0.022l-0.011-2.466c-0.003-0.539,0.434-0.979,0.972-0.981l0.352-0.001
				c0.54,0,0.978,0.436,0.981,0.972l0.01,2.464l0.199,0.021c1.04,0.107,2.064,0.348,3.045,0.714l0.188,0.07l1.104-2.205
				c0.164-0.327,0.508-0.539,0.877-0.539c0.151,0,0.298,0.035,0.434,0.103l0.314,0.157c0.232,0.116,0.405,0.317,0.487,0.565
				c0.083,0.249,0.064,0.513-0.052,0.745l-1.107,2.209l0.167,0.108c0.801,0.519,1.543,1.129,2.205,1.814l0.139,0.144l1.955-1.515
				c0.172-0.134,0.378-0.204,0.596-0.204c0.307,0,0.589,0.138,0.774,0.378l0.215,0.277c0.159,0.205,0.229,0.461,0.195,0.721
				s-0.164,0.49-0.369,0.648l-1.952,1.513l0.104,0.17c0.499,0.81,0.905,1.681,1.207,2.59l0.062,0.188l2.413-0.519
				c0.067-0.014,0.136-0.021,0.204-0.021c0.458,0,0.859,0.324,0.956,0.771l0.072,0.343c0.114,0.527-0.222,1.048-0.748,1.161
				l-2.41,0.519l0.021,0.198c0.044,0.42,0.065,0.852,0.065,1.284c0,0.505-0.034,1.034-0.103,1.573l-0.024,0.198l2.399,0.574
				c0.523,0.125,0.847,0.653,0.722,1.178l-0.082,0.341c-0.104,0.435-0.504,0.749-0.952,0.749l0,0c-0.075,0-0.151-0.009-0.226-0.026
				l-2.396-0.575l-0.067,0.188c-0.319,0.889-0.747,1.75-1.271,2.559L70.068,69.9l1.919,1.559c0.417,0.34,0.48,0.956,0.141,1.373
				l-0.221,0.272c-0.187,0.229-0.463,0.359-0.76,0.359c-0.224,0-0.441-0.077-0.613-0.217l-1.919-1.56l-0.142,0.14
				c-0.679,0.671-1.435,1.265-2.247,1.765l-0.17,0.104l1.054,2.231c0.111,0.235,0.123,0.5,0.035,0.746
				c-0.088,0.247-0.267,0.443-0.501,0.554l-0.317,0.15c-0.13,0.062-0.27,0.093-0.413,0.093c-0.379,0-0.727-0.219-0.887-0.559
				l-1.053-2.232l-0.188,0.065c-0.91,0.315-1.849,0.523-2.79,0.62l-0.198,0.02l-0.017,2.465c-0.003,0.535-0.44,0.971-0.977,0.971
				L59.449,78.816z M59.723,53.436c-5.26,0-9.539,4.279-9.539,9.539c0,5.259,4.279,9.538,9.539,9.538s9.539-4.279,9.539-9.538
				C69.262,57.715,64.982,53.436,59.723,53.436z"/>
			<path fill="#A7A9AC" d="M59.829,46.907l0,0.444c0.414,0,0.752,0.337,0.754,0.751l0.011,2.265l0.002,0.399l0.397,0.041
				c1.021,0.106,2.027,0.342,2.991,0.701l0.374,0.139l0.179-0.357l1.015-2.026c0.126-0.252,0.393-0.416,0.678-0.416
				c0.117,0,0.229,0.027,0.334,0.079l0.314,0.157c0.179,0.09,0.313,0.245,0.376,0.437c0.064,0.192,0.05,0.396-0.04,0.575
				l-1.018,2.032l-0.178,0.356l0.334,0.216c0.786,0.509,1.515,1.109,2.166,1.783l0.277,0.287l0.315-0.244l1.798-1.393
				c0.132-0.103,0.291-0.157,0.46-0.157c0.237,0,0.455,0.106,0.598,0.291l0.215,0.278c0.255,0.329,0.194,0.803-0.134,1.058
				l-1.794,1.39l-0.316,0.244l0.209,0.34c0.489,0.794,0.888,1.65,1.186,2.543l0.126,0.378l0.389-0.084l2.217-0.477
				c0.052-0.011,0.105-0.017,0.157-0.017c0.354,0,0.664,0.25,0.738,0.596l0.074,0.343c0.042,0.196,0.005,0.397-0.105,0.567
				c-0.11,0.17-0.278,0.287-0.474,0.329l-2.214,0.476l-0.389,0.084l0.041,0.396c0.043,0.418,0.065,0.843,0.065,1.262
				c0,0.503-0.033,1.008-0.101,1.546l-0.05,0.395l0.387,0.093l2.206,0.529c0.404,0.097,0.654,0.505,0.558,0.909l-0.082,0.342
				c-0.08,0.335-0.389,0.578-0.735,0.578c-0.058,0-0.117-0.007-0.174-0.021l-2.204-0.528l-0.387-0.093l-0.135,0.375
				c-0.315,0.876-0.735,1.721-1.248,2.513l-0.217,0.335l0.31,0.252l1.763,1.433c0.155,0.126,0.252,0.307,0.273,0.508
				c0.021,0.201-0.037,0.398-0.164,0.553l-0.222,0.273c-0.143,0.176-0.357,0.277-0.587,0.277c-0.175,0-0.339-0.058-0.474-0.168
				l-1.764-1.434l-0.309-0.251l-0.283,0.28c-0.668,0.66-1.41,1.243-2.207,1.733l-0.339,0.208l0.17,0.36l0.969,2.053
				c0.085,0.181,0.095,0.386,0.027,0.576c-0.068,0.19-0.206,0.342-0.387,0.428l-0.318,0.15c-0.101,0.047-0.208,0.072-0.318,0.072
				c-0.293,0-0.562-0.169-0.686-0.432l-0.968-2.051l-0.17-0.361l-0.377,0.13c-0.894,0.31-1.816,0.514-2.74,0.608l-0.397,0.04
				l-0.002,0.399l-0.014,2.265c-0.003,0.413-0.341,0.749-0.759,0.749l-0.351-0.002c-0.2-0.001-0.389-0.081-0.531-0.225
				c-0.142-0.144-0.22-0.333-0.219-0.534l0.014-2.267l0.002-0.399l-0.396-0.045c-0.937-0.107-1.856-0.322-2.733-0.638l-0.375-0.135
				l-0.175,0.359l-0.993,2.037c-0.125,0.257-0.393,0.423-0.681,0.423c-0.114,0-0.224-0.025-0.327-0.076l-0.316-0.154
				c-0.374-0.182-0.53-0.635-0.348-1.008l0.995-2.042l0.174-0.358l-0.336-0.213c-0.795-0.503-1.53-1.094-2.186-1.758l-0.28-0.284
				l-0.312,0.247l-1.781,1.412c-0.134,0.106-0.295,0.162-0.466,0.162c-0.234,0-0.45-0.104-0.593-0.284l-0.218-0.275
				c-0.124-0.157-0.18-0.354-0.157-0.555c0.023-0.201,0.122-0.38,0.279-0.504l1.781-1.411l0.313-0.248l-0.213-0.338
				c-0.501-0.793-0.909-1.644-1.215-2.529l-0.13-0.376l-0.388,0.088l-2.212,0.501c-0.054,0.012-0.11,0.019-0.165,0.019
				c-0.35,0-0.66-0.247-0.737-0.587l-0.078-0.343c-0.044-0.195-0.009-0.397,0.099-0.568c0.108-0.171,0.275-0.29,0.47-0.334
				l2.211-0.501l0.388-0.088l-0.045-0.396c-0.054-0.476-0.082-0.945-0.082-1.394c0-0.454,0.028-0.93,0.084-1.413l0.046-0.396
				l-0.388-0.089l-2.211-0.505c-0.195-0.045-0.362-0.163-0.469-0.335c-0.108-0.171-0.142-0.373-0.098-0.568l0.078-0.342
				c0.078-0.34,0.387-0.586,0.737-0.586c0.056,0,0.112,0.006,0.167,0.019l2.211,0.505l0.388,0.089l0.131-0.376
				c0.307-0.884,0.717-1.734,1.219-2.527l0.214-0.337l-0.312-0.248l-1.778-1.414c-0.326-0.259-0.38-0.734-0.121-1.06l0.219-0.275
				c0.143-0.18,0.359-0.284,0.592-0.284c0.172,0,0.334,0.056,0.467,0.162l1.779,1.414l0.312,0.248l0.28-0.283
				c0.656-0.663,1.393-1.253,2.189-1.755l0.337-0.212l-0.174-0.358l-0.992-2.044c-0.087-0.18-0.099-0.384-0.033-0.576
				s0.202-0.345,0.382-0.432l0.316-0.153c0.103-0.05,0.212-0.075,0.326-0.075c0.289,0,0.557,0.167,0.682,0.424l0.99,2.039
				l0.174,0.359l0.376-0.135c0.879-0.315,1.799-0.529,2.734-0.634l0.396-0.045l-0.002-0.399l-0.011-2.267
				c-0.002-0.416,0.335-0.756,0.751-0.758l0.351-0.002L59.829,46.907 M59.723,72.735c5.382,0,9.761-4.379,9.761-9.76
				c0-5.382-4.379-9.761-9.761-9.761c-5.382,0-9.76,4.379-9.76,9.761C49.962,68.356,54.341,72.735,59.723,72.735 M59.829,46.907
				c-0.002,0-0.004,0-0.006,0l-0.351,0.002c-0.659,0.003-1.196,0.545-1.193,1.204l0.011,2.267c-0.983,0.111-1.932,0.334-2.834,0.657
				l-0.99-2.039c-0.207-0.426-0.636-0.674-1.082-0.674c-0.175,0-0.352,0.038-0.52,0.12l-0.316,0.153
				c-0.593,0.288-0.843,1.009-0.555,1.602l0.992,2.044c-0.824,0.519-1.586,1.129-2.268,1.818l-1.779-1.414
				c-0.219-0.174-0.482-0.259-0.744-0.259c-0.354,0-0.704,0.155-0.94,0.451l-0.219,0.275c-0.41,0.516-0.324,1.274,0.192,1.684
				l1.778,1.414c-0.516,0.815-0.942,1.693-1.263,2.619l-2.211-0.505c-0.089-0.02-0.178-0.03-0.265-0.03
				c-0.546,0-1.043,0.378-1.17,0.932L44.02,59.57c-0.147,0.643,0.259,1.288,0.902,1.435l2.211,0.505
				c-0.056,0.481-0.087,0.969-0.087,1.464c0,0.489,0.031,0.97,0.085,1.444l-2.211,0.501c-0.643,0.146-1.05,0.791-0.904,1.434
				l0.078,0.343c0.126,0.555,0.623,0.934,1.17,0.934c0.087,0,0.175-0.01,0.263-0.03l2.212-0.501c0.32,0.927,0.744,1.805,1.259,2.621
				l-1.781,1.411c-0.517,0.409-0.604,1.167-0.195,1.684l0.218,0.275c0.236,0.298,0.587,0.453,0.941,0.453
				c0.261,0,0.523-0.084,0.742-0.258l1.781-1.412c0.681,0.69,1.441,1.301,2.265,1.822l-0.995,2.042
				c-0.289,0.593-0.04,1.314,0.552,1.602l0.316,0.154c0.168,0.082,0.346,0.12,0.522,0.12c0.445,0,0.874-0.248,1.081-0.673
				l0.993-2.037c0.902,0.325,1.85,0.549,2.833,0.661l-0.014,2.267c-0.004,0.659,0.532,1.202,1.191,1.206l0.351,0.002
				c0.002,0,0.005,0,0.008,0c0.656,0,1.194-0.534,1.198-1.191l0.014-2.265c0.985-0.1,1.935-0.317,2.84-0.631l0.968,2.051
				c0.204,0.432,0.637,0.686,1.087,0.686c0.171,0,0.344-0.037,0.508-0.114l0.318-0.15c0.596-0.281,0.854-0.999,0.572-1.595
				l-0.969-2.053c0.83-0.51,1.597-1.114,2.287-1.795l1.764,1.434c0.221,0.18,0.488,0.267,0.754,0.267
				c0.349,0,0.696-0.151,0.932-0.441l0.222-0.273c0.416-0.511,0.337-1.27-0.174-1.686l-1.763-1.433
				c0.525-0.81,0.962-1.682,1.294-2.604l2.204,0.528c0.093,0.022,0.186,0.033,0.278,0.033c0.541,0,1.036-0.371,1.167-0.919
				l0.082-0.342c0.154-0.641-0.245-1.291-0.886-1.445l-2.206-0.529c0.067-0.525,0.105-1.059,0.105-1.602
				c0-0.441-0.023-0.878-0.067-1.307l2.214-0.476c0.644-0.139,1.058-0.779,0.92-1.424l-0.074-0.343
				c-0.121-0.56-0.621-0.946-1.173-0.946c-0.083,0-0.167,0.009-0.251,0.027l-2.217,0.477c-0.31-0.931-0.723-1.815-1.229-2.636
				l1.794-1.39c0.521-0.404,0.617-1.16,0.213-1.681l-0.215-0.278c-0.235-0.304-0.591-0.463-0.95-0.463
				c-0.257,0-0.515,0.081-0.732,0.25l-1.798,1.393c-0.674-0.698-1.426-1.318-2.244-1.847l1.018-2.032
				c0.295-0.589,0.055-1.313-0.535-1.608l-0.314-0.157c-0.171-0.086-0.353-0.126-0.533-0.126c-0.44,0-0.866,0.243-1.075,0.661
				l-1.015,2.026c-0.982-0.366-2.021-0.615-3.1-0.726L61.028,48.1C61.025,47.443,60.486,46.907,59.829,46.907L59.829,46.907z
				 M59.723,72.29c-5.137,0-9.316-4.179-9.316-9.316s4.179-9.316,9.316-9.316c5.137,0,9.316,4.179,9.316,9.316
				S64.86,72.29,59.723,72.29L59.723,72.29z"/>
		</g>
	</g>
</g>
</svg>
