<?xml version="1.0" encoding="utf-8"?>
<!-- Generator: Adobe Illustrator 17.0.0, SVG Export Plug-In . SVG Version: 6.00 Build 0)  -->
<!DOCTYPE svg PUBLIC "-//W3C//DTD SVG 1.1//EN" "http://www.w3.org/Graphics/SVG/1.1/DTD/svg11.dtd">
<svg version="1.1" id="Layer_1" xmlns="http://www.w3.org/2000/svg" xmlns:xlink="http://www.w3.org/1999/xlink" x="0px" y="0px"
	 width="93px" height="100px" viewBox="0 0 93 100" enable-background="new 0 0 93 100" xml:space="preserve">
<g>
	<circle fill="#FFFFFF" stroke="#333333" stroke-width="3.5549" stroke-miterlimit="10" cx="47.707" cy="50.6" r="41.5"/>
	<g>
		<g>
			<polygon fill="#FFFFFF" points="20.805,37.966 55.842,54.279 55.133,79.245 22.223,61.656 			"/>
			<path fill="#6D6E71" d="M55.133,79.671c-0.069,0-0.138-0.017-0.201-0.05l-32.91-17.59c-0.13-0.07-0.215-0.202-0.224-0.35
				L20.38,37.992c-0.009-0.15,0.062-0.293,0.185-0.377c0.124-0.084,0.283-0.097,0.419-0.034l35.037,16.313
				c0.154,0.071,0.251,0.228,0.246,0.398l-0.709,24.966c-0.004,0.148-0.084,0.282-0.212,0.356
				C55.28,79.652,55.207,79.671,55.133,79.671z M22.634,61.393l32.093,17.154l0.682-23.999L21.272,38.653L22.634,61.393z"/>
		</g>
		<g>
			<polygon fill="#BCBEC0" points="55.133,79.245 75.276,63.358 77.404,35.271 55.7,47.754 			"/>
			<path fill="#6D6E71" d="M55.133,79.671c-0.064,0-0.129-0.015-0.189-0.044c-0.147-0.073-0.239-0.224-0.236-0.389l0.567-31.491
				c0.003-0.15,0.084-0.287,0.213-0.362l21.703-12.483c0.136-0.079,0.305-0.075,0.439,0.009c0.133,0.084,0.209,0.235,0.197,0.392
				L75.7,63.39c-0.009,0.119-0.067,0.229-0.161,0.302L55.396,79.58C55.32,79.64,55.227,79.671,55.133,79.671z M56.122,48.003
				l-0.547,30.353l19.291-15.216l2.053-27.098L56.122,48.003z"/>
		</g>
		<g>
			<polygon fill="#E6E7E8" points="19.953,38.25 55.842,54.279 55.7,47.754 19.67,32.576 			"/>
			<path fill="#6D6E71" d="M55.842,54.705c-0.059,0-0.118-0.012-0.174-0.037L19.78,38.638c-0.146-0.065-0.244-0.207-0.251-0.367
				l-0.284-5.674c-0.007-0.146,0.061-0.286,0.181-0.37c0.119-0.084,0.274-0.101,0.409-0.044l36.031,15.178
				c0.155,0.065,0.257,0.215,0.26,0.383l0.142,6.525c0.003,0.146-0.069,0.283-0.19,0.364C56.007,54.681,55.925,54.705,55.842,54.705
				z M20.366,37.968l35.036,15.649l-0.121-5.578L20.129,33.231L20.366,37.968z"/>
		</g>
		<g>
			<polygon fill="#A7A9AC" points="55.7,47.754 77.688,34.846 73.574,43.215 55.842,54.279 			"/>
			<path fill="#6D6E71" d="M55.842,54.705c-0.07,0-0.139-0.017-0.202-0.051c-0.135-0.073-0.22-0.212-0.223-0.365l-0.142-6.525
				c-0.003-0.154,0.077-0.298,0.21-0.376l21.987-12.909c0.163-0.096,0.368-0.073,0.505,0.055c0.138,0.128,0.175,0.331,0.092,0.5
				l-4.114,8.369c-0.035,0.071-0.089,0.131-0.157,0.173L56.067,54.641C55.999,54.683,55.92,54.705,55.842,54.705z M56.131,47.995
				l0.12,5.528l16.994-10.604l3.435-6.988L56.131,47.995z"/>
		</g>
		<g>
			<polygon fill="#E6E7E8" points="19.67,32.576 43.359,22.788 77.688,34.846 55.7,47.754 			"/>
			<path fill="#6D6E71" d="M55.7,48.18c-0.056,0-0.112-0.011-0.165-0.033L19.505,32.968c-0.158-0.067-0.261-0.222-0.26-0.394
				c0.001-0.172,0.104-0.326,0.263-0.391l23.69-9.788c0.096-0.04,0.205-0.043,0.304-0.008l34.328,12.057
				c0.156,0.055,0.267,0.195,0.282,0.36c0.016,0.165-0.065,0.324-0.208,0.408L55.916,48.121C55.85,48.16,55.775,48.18,55.7,48.18z
				 M20.775,32.58l34.894,14.7l21.012-12.336l-33.309-11.7L20.775,32.58z"/>
		</g>
		<g>
			<line fill="#E6E7E8" x1="29.282" y1="36.625" x2="23.944" y2="34.377"/>
			<rect x="23.079" y="34.863" transform="matrix(0.9215 0.3883 -0.3883 0.9215 15.8718 -7.5479)" width="7.069" height="1.277"/>
		</g>
		<g>
			<line fill="#E6E7E8" x1="48.269" y1="44.624" x2="41.64" y2="41.831"/>
			<rect x="40.72" y="42.589" transform="matrix(0.9216 0.3882 -0.3882 0.9216 20.3085 -14.0622)" width="8.469" height="1.277"/>
		</g>
		<g>
			<path d="M70.32,48.757c0.431,0.689-0.137,1.829-1.262,2.532l-3.125,1.954c-1.125,0.703-2.398,0.715-2.829,0.026
				s0.137-1.829,1.262-2.532l3.125-1.954C68.616,48.079,69.889,48.068,70.32,48.757z"/>
		</g>
	</g>
</g>
</svg>
