<?xml version="1.0" encoding="utf-8"?>
<!-- Generator: Adobe Illustrator 17.0.0, SVG Export Plug-In . SVG Version: 6.00 Build 0)  -->
<!DOCTYPE svg PUBLIC "-//W3C//DTD SVG 1.1//EN" "http://www.w3.org/Graphics/SVG/1.1/DTD/svg11.dtd">
<svg version="1.1" id="Layer_1" xmlns="http://www.w3.org/2000/svg" xmlns:xlink="http://www.w3.org/1999/xlink" x="0px" y="0px"
	 width="34px" height="23px" viewBox="-2 0.75 34 23" enable-background="new -2 0.75 34 23" xml:space="preserve">
<path fill="#FFFFFF" d="M25.936,7.795c-0.768,0.341-1.593,0.571-2.459,0.675c0.884-0.53,1.564-1.369,1.883-2.369
	c-0.827,0.49-1.744,0.847-2.719,1.039c-0.781-0.832-1.894-1.352-3.126-1.352c-2.365,0-4.283,1.917-4.283,4.282
	c0,0.336,0.038,0.662,0.111,0.976c-3.559-0.178-6.714-1.883-8.826-4.474C6.148,7.203,5.937,7.938,5.937,8.724
	c0,1.486,0.756,2.796,1.905,3.564c-0.701-0.023-1.361-0.215-1.939-0.536c0,0.018,0,0.036,0,0.054c0,2.075,1.476,3.805,3.435,4.199
	c-0.36,0.098-0.738,0.15-1.128,0.15c-0.276,0-0.545-0.027-0.805-0.077c0.545,1.701,2.126,2.939,4,2.974
	c-1.466,1.149-3.312,1.833-5.319,1.833c-0.345,0-0.687-0.02-1.022-0.06c1.895,1.215,4.146,1.924,6.564,1.924
	c7.876,0,12.184-6.525,12.184-12.184c0-0.186-0.004-0.37-0.012-0.554C24.636,9.408,25.362,8.654,25.936,7.795z"/>
</svg>
