<?xml version="1.0" encoding="utf-8"?>
<!-- Generator: Adobe Illustrator 17.0.0, SVG Export Plug-In . SVG Version: 6.00 Build 0)  -->
<!DOCTYPE svg PUBLIC "-//W3C//DTD SVG 1.1//EN" "http://www.w3.org/Graphics/SVG/1.1/DTD/svg11.dtd">
<svg version="1.1" id="Layer_1" xmlns="http://www.w3.org/2000/svg" xmlns:xlink="http://www.w3.org/1999/xlink" x="0px" y="0px"
	 width="30px" height="24.5px" viewBox="0 0 30 24.5" enable-background="new 0 0 30 24.5" xml:space="preserve">
<path fill="#FFFFFF" d="M26.5,7.737c-0.809,0.359-1.679,0.602-2.592,0.711c0.932-0.559,1.648-1.443,1.985-2.497
	c-0.872,0.517-1.838,0.893-2.866,1.095c-0.823-0.877-1.996-1.425-3.295-1.425c-2.493,0-4.514,2.021-4.514,4.513
	c0,0.354,0.04,0.698,0.117,1.029c-3.751-0.188-7.077-1.985-9.303-4.716C5.643,7.113,5.42,7.888,5.42,8.716
	c0,1.566,0.797,2.947,2.008,3.757c-0.739-0.024-1.435-0.227-2.044-0.565c0,0.019,0,0.038,0,0.057c0,2.187,1.556,4.011,3.621,4.426
	c-0.379,0.103-0.778,0.158-1.189,0.158c-0.291,0-0.574-0.028-0.849-0.081c0.574,1.793,2.241,3.098,4.216,3.135
	c-1.545,1.211-3.491,1.932-5.606,1.932c-0.364,0-0.724-0.021-1.077-0.063c1.997,1.281,4.37,2.028,6.919,2.028
	c8.302,0,12.842-6.878,12.842-12.842c0-0.196-0.004-0.39-0.013-0.584C25.13,9.437,25.895,8.642,26.5,7.737z"/>
</svg>
